<?xml version="1.0" standalone="no"?>
<!DOCTYPE svg PUBLIC "-//W3C//DTD SVG 1.1//EN" "http://www.w3.org/Graphics/SVG/1.1/DTD/svg11.dtd">
<svg xmlns="http://www.w3.org/2000/svg">
<defs >
<font id="PlayfairDisplay" horiz-adv-x="579" ><font-face
    font-family="Playfair Display"
    units-per-em="1000"
    panose-1="0 0 0 0 0 0 0 0 0 0"
    ascent="1082"
    descent="-251"
    alphabetic="0" />
<glyph unicode=" " horiz-adv-x="233" />
<glyph unicode="!" horiz-adv-x="288" d="M144 782Q176 782 201 757T226 684Q226 641 216 587T192 471T167 339T153 196V196H135Q133 270 122 339T97 470T73 587T62 684Q62 731 85 756T144 782ZM144 140Q183 140 206 120T229 63Q229 27 206 7T144 -14Q105 -14
82 6T59 63Q59 99 82 119T144 140Z" />
<glyph unicode="&quot;" horiz-adv-x="369" d="M105 730Q132 730 150 713T168 664Q168 634 160 608T139 550T112 468H98Q85 516 72 548T50 606T42 663Q42 694 60 712T105 730ZM266 730Q293 730 311 713T329 664Q329 634 321 608T300 550T273 468H259Q246 516 233
548T211 606T203 663Q203 694 221 712T266 730Z" />
<glyph unicode="#" horiz-adv-x="620" d="M463 602L366 101H346L443 602H463ZM545 267L541 247H40L44 267H545ZM276 602L179 101H159L256 602H276ZM581 454L578 434H77L80 454H581Z" />
<glyph unicode="$" horiz-adv-x="574" d="M279 721Q338 721 370 709T425 682Q437 675 444 672T459 668Q469 668 473 679T481 712H504Q503 693 502 667T500 597T499 484H476Q469 546 450 594T393 671T295 699Q235 699 205 673T175 605Q175 582 182 563T210 522T269
473T369 406Q417 376 455 345T515 274T538 181Q538 115 504 72T414 8T290 -14Q228 -14 193 -1T137 22Q124 29 114 33T95 37Q85 37 81 26T73 -7H50Q52 17 52 49T53 132T54 263H77Q82 195 96 147T134 68T196 23T286 8Q333 8 362 20T406 56T421 111Q421 132 414 151T387
190T330 239T233 308Q186 338 145 370T80 442T55 538Q55 601 86 641T169 701T279 721ZM256 840V-132H236V840H256ZM353 840V-132H333V840H353Z" />
<glyph unicode="%" horiz-adv-x="728" d="M196 761Q268 761 313 718T358 598Q358 548 337 510T280 451T196 430Q124 430 79 473T33 593Q33 643 54 681T112 740T196 761ZM530 299Q498 299 482 261T465 150Q465 77 483 41T534 4Q567 4 582 42T598 152Q598 226 580
262T530 299ZM532 317Q604 317 649 274T694 154Q694 104 673 66T616 7T532 -14Q460 -14 415 29T369 149Q369 199 390 237T448 296T532 317ZM194 743Q162 743 146 705T129 594Q129 521 147 485T198 448Q231 448 246 486T262 596Q262 670 244 706T194 743ZM652 824L671
811L86 -55L67 -42L652 824Z" />
<glyph unicode="&amp;" horiz-adv-x="898" d="M330 710Q369 710 393 705T434 689Q450 682 463 671T486 644T495 608Q495 578 472 560T418 542Q388 542 367 557T345 604Q345 629 363 649T409 675Q402 683 384 688T343 693Q291 693 255 661T218 562Q218 539 226
513T257 460Q274 464 288 466T313 468Q331 468 340 461T350 441Q350 432 342 426T322 420Q305 420 287 429T258 446Q211 422 182 385T152 284Q152 218 188 176T289 112T444 90Q494 90 543 101T631 134T695 188T719 264Q719 280 715 304T693 353T637 394L644 403Q698
386 726 339T754 231Q754 161 711 106T591 18T409 -14Q326 -14 259 3T143 52T68 131T41 235Q41 291 64 330T122 395T190 435T244 454Q213 467 188 484T147 526T131 580Q131 612 148 636T193 677T257 701T330 710ZM723 722Q794 722 838 685T882 581Q882 530 858
495T788 438T679 403Q665 398 644 392T601 379T559 367T523 357Q445 340 403 319T361 260Q361 235 377 217T419 189T469 179Q476 179 484 180T499 184T509 189Q484 197 472 214T459 255Q459 287 482 304T539 321Q575 321 595 302T616 253Q616 222 597 202T546 172T474
162Q435 162 401 176T346 218T325 290Q325 343 352 378T429 437T549 474Q570 479 595 485T648 499T698 514Q770 532 809 554T849 613Q849 640 833 660T790 692T736 704Q727 704 720 703T707 699Q732 690 744 672T756 636Q756 605 733 589T676 572Q642 572 620 589T598
638Q598 665 613 683T657 712T723 722Z" />
<glyph unicode="&apos;" horiz-adv-x="209" d="M105 730Q132 730 150 713T168 664Q168 634 160 608T139 550T112 468H98Q85 516 72 548T50 606T42 663Q42 694 60 712T105 730Z" />
<glyph unicode="(" horiz-adv-x="318" d="M285 806L300 794Q233 690 203 574T173 312Q173 167 203 52T300 -170L285 -182Q166 -94 101 27T35 312Q35 476 100 597T285 806Z" />
<glyph unicode=")" horiz-adv-x="318" d="M33 806Q152 718 217 597T283 312Q283 148 218 27T33 -182L18 -170Q86 -63 115 52T145 312Q145 458 115 574T18 794L33 806Z" />
<glyph unicode="*" horiz-adv-x="481" d="M352 639Q378 654 396 647T423 624Q432 608 430 589T401 555Q376 541 338 536T241 517L240 520Q277 562 302 593T352 639ZM242 520Q296 508 336 502T401 482Q427 467 430 448T423 413Q415 397 397 390T353 398Q328 412
304 442T240 517L242 520ZM243 518Q260 465 275 428T290 361Q290 331 274 319T241 307Q222 307 208 319T193 361Q193 390 207 426T240 517L243 518ZM240 518L242 516Q204 475 179 443T130 397Q104 382 86 389T58 412Q49 428 52 447T81 481Q106 495 144 501T240
518ZM129 638Q154 624 178 594T241 519L240 516Q185 528 145 534T80 554Q55 569 52 588T58 623Q67 639 85 646T129 638ZM241 729Q259 729 274 717T289 675Q289 647 275 611T242 518H239Q221 571 207 609T192 675Q192 705 207 717T241 729Z" />
<glyph unicode="+" horiz-adv-x="574" d="M305 606V370H537V340H305V105H269V340H36V370H269V606H305Z" />
<glyph unicode="," horiz-adv-x="271" d="M131 140Q156 140 174 131T202 105Q213 91 218 68T224 22Q224 -28 199 -70T119 -138L110 -120Q138 -108 160 -83T186 -32Q191 -10 186 10Q164 -14 128 -14Q93 -14 71 6T49 63Q49 98 72 119T131 140Z" />
<glyph unicode="-" horiz-adv-x="481" d="M421 312V229H60V312H421Z" />
<glyph unicode="." horiz-adv-x="270" d="M135 140Q174 140 197 120T220 63Q220 27 197 7T135 -14Q96 -14 73 6T50 63Q50 99 73 119T135 140Z" />
<glyph unicode="/" horiz-adv-x="368" d="M337 722L65 -14H32L304 722H337Z" />
<glyph unicode="0" horiz-adv-x="645" d="M328 531Q408 531 469 499T565 407T600 267Q600 187 565 124T466 23T317 -14Q239 -14 178 19T81 111T45 251Q45 330 80 393T179 494T328 531ZM319 513Q265 513 231 445T196 254Q196 164 214 109T261 29T326 4Q380 4 414
73T449 264Q449 354 431 409T384 488T319 513Z" />
<glyph unicode="1" horiz-adv-x="383" d="M282 528V97Q282 53 298 37T354 21V0Q334 1 296 2T216 4Q165 4 118 3T44 0V21Q89 21 113 37T138 103V347Q138 395 130 418T100 448T40 455V477Q126 479 182 490T282 528Z" />
<glyph unicode="2" horiz-adv-x="523" d="M275 531Q352 531 397 498T442 404Q442 365 423 333T371 273T303 219T232 170T174 119H390Q431 119 442 129T457 164H478Q478 97 479 60T482 -5Q473 -3 449 -2T394 -1T333 0H42V19Q70 49 111 85T191 165T258 260T285 371Q285
425 261 449T192 473Q149 473 117 454T58 396L41 406Q61 440 91 468T167 514T275 531Z" />
<glyph unicode="3" horiz-adv-x="488" d="M246 531Q295 531 334 518T395 479T417 416Q417 378 393 345T323 288T214 251Q282 254 336 237T421 186T453 99Q453 53 429 14T361 -55T264 -107T149 -140T29 -151V-131Q76 -130 124 -115T213 -71T279 0T304 98Q304 157
276 195T199 237Q184 230 172 226T148 221Q139 221 134 224T129 235Q129 247 139 252T161 257Q169 257 177 256T196 253Q239 283 256 317T273 387Q273 432 250 453T184 475Q145 475 111 456T54 397L36 406Q54 439 81 467T148 513T246 531Z" />
<glyph unicode="4" horiz-adv-x="528" d="M381 531L385 505L73 105L87 139H405Q446 139 457 149T472 184H493Q493 124 494 91T497 31Q490 33 471 33T426 35T374 36T324 36H8V57L381 531ZM397 531V-141H281V390L381 531H397Z" />
<glyph unicode="5" horiz-adv-x="459" d="M385 555Q385 489 386 453T389 387Q381 389 359 390T307 391T250 392H96L80 221Q104 238 141 249T231 261Q298 261 341 240T405 183T426 103Q426 45 392 -1T299 -80T171 -130T30 -148V-130Q76 -130 120 -115T200 -71T256
0T277 97Q277 159 248 193T162 227Q133 227 113 220T72 198L58 207L90 520Q101 518 115 517T144 516H309Q338 516 349 525T364 555H385Z" />
<glyph unicode="6" horiz-adv-x="561" d="M446 723L450 703Q414 691 378 674T310 627T252 551T213 434T198 265Q198 166 212 110T249 30T292 6Q315 6 335 27T367 94T380 215Q380 287 369 330T338 392T295 411Q278 411 257 401T218 369T192 307L183 311Q189 359
212 387T269 428T335 440Q389 440 433 414T504 340T531 224Q531 147 497 94T406 14T282 -14Q172 -14 110 60T47 271Q47 361 73 431T142 552T237 639T344 694T446 723Z" />
<glyph unicode="7" horiz-adv-x="455" d="M23 521Q32 519 56 518T111 517T172 516H454V495Q435 450 406 399T347 287T298 157T278 6Q278 0 279 -16T282 -48T283 -75Q283 -103 265 -125T210 -148Q173 -148 155 -123T137 -60Q137 -5 157 49T209 155T278 258T350
354T412 441L389 395H115Q74 395 63 385T48 350H27Q27 416 26 454T23 521Z" />
<glyph unicode="8" horiz-adv-x="561" d="M288 722Q345 722 389 705T459 656T484 582Q484 528 445 489T335 414L327 428Q343 448 352 473T364 525T368 574Q368 635 345 669T280 704Q246 704 227 681T208 621Q208 578 230 541T288 471T364 405T439 337T497 263T520
175Q520 119 488 77T401 11T275 -14Q213 -14 160 5T75 62T43 157Q43 205 66 242T128 308T217 356L225 342Q192 309 180 265T167 175Q167 129 177 90T213 28T280 4Q328 4 354 34T381 112Q381 158 359 195T303 266T229 332T155 397T98 470T76 559Q76 614 105 650T183
704T288 722Z" />
<glyph unicode="9" horiz-adv-x="553" d="M278 531Q387 531 450 459T513 255Q513 175 488 112T420 2T326 -76T221 -126T120 -152L116 -132Q160 -119 203 -97T282 -34T340 79T362 260Q362 357 348 411T312 488T267 511Q245 511 225 491T193 424T180 302Q180 231
191 188T222 125T265 106Q282 106 303 116T342 149T368 210L377 206Q371 158 348 130T291 90T225 77Q172 77 128 103T56 177T29 294Q29 371 63 424T154 504T278 531Z" />
<glyph unicode=":" horiz-adv-x="290" d="M145 531Q184 531 207 511T230 454Q230 418 207 398T145 377Q106 377 83 397T60 454Q60 490 83 510T145 531ZM145 140Q184 140 207 120T230 63Q230 27 207 7T145 -14Q106 -14 83 6T60 63Q60 99 83 119T145 140Z" />
<glyph unicode=";" horiz-adv-x="296" d="M143 140Q168 140 186 131T214 105Q225 91 230 68T236 22Q236 -28 211 -70T131 -138L122 -120Q150 -108 172 -83T198 -32Q203 -10 198 10Q176 -14 140 -14Q105 -14 83 6T61 63Q61 98 84 119T143 140ZM149 531Q188 531
211 511T234 454Q234 418 211 398T149 377Q110 377 87 397T64 454Q64 490 87 510T149 531Z" />
<glyph unicode="&lt;" horiz-adv-x="602" d="M515 582L532 546L123 355L532 164L515 128L28 355L515 582Z" />
<glyph unicode="=" horiz-adv-x="635" d="M568 440V410H67V440H568ZM568 300V270H67V300H568Z" />
<glyph unicode="&gt;" horiz-adv-x="602" d="M87 582L574 355L87 128L70 164L479 355L70 546L87 582Z" />
<glyph unicode="?" horiz-adv-x="508" d="M237 782Q309 782 362 761T446 699T477 602Q477 546 445 502T355 428T222 380V234H202V389Q258 414 286 444T324 509T334 583Q334 678 300 720T211 762Q184 762 161 756T124 736Q151 727 165 710T180 663Q180 632 158
612T101 591Q69 591 50 611T30 660Q30 691 46 711T87 747Q111 761 148 771T237 782ZM213 140Q252 140 275 120T298 63Q298 27 275 7T213 -14Q174 -14 151 6T128 63Q128 99 151 119T213 140Z" />
<glyph unicode="@" horiz-adv-x="884" d="M534 668Q623 668 695 640T809 552T852 393Q852 309 825 241T753 125T656 52T556 26Q517 26 499 40T478 77T480 124T490 167L551 464Q582 464 615 467T677 478L598 117Q593 96 593 81T599 61T622 60Q653 69 689 95T757
163T811 263T832 394Q832 487 791 543T683 624T535 650Q461 650 391 624T262 551T159 440T90 301T65 145Q65 42 105 -21T214 -114T371 -143Q425 -143 476 -131T577 -89L584 -102Q547 -128 492 -144T370 -161Q275 -161 202 -129T87 -30T45 143Q45 224 69 300T138
443T244 560T378 639T534 668ZM464 478Q495 478 513 464T539 425T543 374L533 367Q535 384 532 401T517 431T489 443Q464 443 440 419T397 353T365 261T353 157Q353 111 364 93T394 74Q427 74 456 119T508 245L513 228Q494 154 468 110T411 46T341 26Q306 26 280
40T239 84T225 156Q225 209 244 265T297 370T374 448T464 478Z" />
<glyph unicode="A" horiz-adv-x="667" d="M368 710L611 84Q625 48 642 35T674 20V0Q644 2 604 2T522 3Q476 3 435 3T370 0V20Q421 22 434 37T428 104L258 569L276 595L124 199Q102 144 98 109T102 55T133 29T185 20V0Q152 2 122 2T61 3Q39 3 20 3T-15 0V20Q6 24
28 47T71 125L299 710Q315 709 333 709T368 710ZM438 288V268H140L150 288H438Z" />
<glyph unicode="B" horiz-adv-x="672" d="M34 708Q60 707 102 706T186 705Q234 705 279 706T343 707Q467 707 528 663T590 550Q590 515 569 479T504 415T390 374V372Q484 365 539 338T618 273T642 194Q642 131 609 88T514 23T366 0Q342 0 297 1T188 3Q144 3 102
3T34 0V20Q66 22 82 28T103 52T109 106V602Q109 639 104 656T82 680T34 688V708ZM330 688Q291 688 280 671T268 602V106Q268 71 273 53T293 29T337 23Q409 23 442 68T476 198Q476 275 438 317T310 359H225Q225 359 225 367T225 376H311Q358 376 383 398T418 458T428
539Q428 613 405 650T330 688Z" />
<glyph unicode="C" horiz-adv-x="705" d="M397 722Q463 722 505 703T581 657Q601 642 611 653T626 708H649Q647 669 646 614T645 466H622Q617 512 609 544T587 602T547 647Q522 672 489 684T420 696Q366 696 328 668T267 590T232 480T221 352Q221 285 232 224T268
114T332 38T424 10Q457 10 490 22T548 59Q587 89 601 133T622 252H645Q645 157 646 99T649 0H626Q622 43 613 54T581 51Q544 25 503 6T396 -14Q290 -14 211 29T87 153T43 348Q43 460 88 544T213 675T397 722Z" />
<glyph unicode="D" horiz-adv-x="776" d="M343 708Q540 708 636 619T732 362Q732 253 685 172T549 45T334 0Q318 0 292 1T238 2T188 3Q144 3 102 3T34 0V20Q66 22 82 28T103 52T109 106V602Q109 639 104 656T82 680T34 688V708Q59 707 101 706T186 705Q222 706
267 707T343 708ZM342 690Q296 690 282 673T268 604V104Q268 52 282 35T343 18Q427 18 475 57T545 173T566 358Q566 470 544 543T472 653T342 690Z" />
<glyph unicode="E" horiz-adv-x="634" d="M569 708Q565 664 564 623T562 560Q562 540 563 522T565 492H542Q532 565 511 607T457 667T378 685H337Q308 685 293 680T273 660T268 614V94Q268 63 273 48T293 28T337 23H386Q431 23 465 42T524 109T562 236H585Q582
204 582 152Q582 129 583 87T589 0Q538 2 474 2T360 3Q335 3 296 3T212 3T121 2T34 0V20Q66 22 82 28T103 52T109 106V602Q109 639 104 656T82 680T34 688V708Q75 707 121 707T212 706T296 705T360 705Q406 705 464 705T569 708ZM413 366Q413 366 413 356T413 346H238Q238
346 238 356T238 366H413ZM442 498Q438 441 438 411T439 356Q439 331 440 301T445 214H422Q417 249 404 279T365 327T300 346V366Q330 366 351 378T385 411T407 455T419 498H442Z" />
<glyph unicode="F" horiz-adv-x="592" d="M569 708Q565 663 564 621T562 556Q562 534 563 514T565 480H542Q529 558 506 602T450 666T370 685H337Q308 685 293 680T273 660T268 614V112Q268 73 276 54T307 29T375 22V0Q344 1 295 2T192 3Q149 3 108 2T34 0V20Q66
22 82 28T103 52T109 106V602Q109 639 104 656T82 680T34 688V708Q75 707 121 707T212 706T296 705T360 705Q406 705 464 705T569 708ZM420 362Q420 362 420 352T420 342H238Q238 342 238 352T238 362H420ZM445 494Q441 437 441 407T442 352Q442 327 443 297T448
210H425Q419 245 406 275T368 323T303 342V362Q333 362 353 374T388 407T410 451T422 494H445Z" />
<glyph unicode="G" horiz-adv-x="735" d="M405 722Q473 722 516 703T593 657Q605 648 613 648Q632 648 638 708H661Q659 669 658 614T657 466H634Q627 526 613 570T559 647Q535 670 500 683T428 696Q373 696 334 668T270 590T233 480T221 352Q221 172 270 89T413
6Q437 6 455 12T484 26Q498 36 503 47T508 78V176Q508 222 501 244T471 275T407 284V304Q428 303 457 303T519 302T578 301Q620 301 655 302T712 304V284Q693 283 684 277T671 253T667 198V0H647Q646 17 640 37T618 57Q611 57 600 54T564 36Q527 15 486 1T400 -14Q284
-14 204 29T84 152T43 346Q43 460 89 544T217 675T405 722Z" />
<glyph unicode="H" horiz-adv-x="800" d="M458 0V20Q490 22 506 28T527 52T533 106V602Q533 639 528 656T506 680T458 688V708Q485 707 528 706T615 705Q661 705 701 706T767 708V688Q735 687 719 681T697 657T692 602V106Q692 70 697 52T719 28T767 20V0Q742
2 702 2T615 3Q572 3 529 3T458 0ZM34 0V20Q66 22 82 28T103 52T109 106V602Q109 639 104 656T82 680T34 688V708Q60 707 101 706T192 705Q234 705 275 706T343 708V688Q311 687 295 681T273 657T268 602V106Q268 70 273 52T295 28T343 20V0Q316 2 275 2T192 3Q143
3 102 3T34 0ZM203 346V366H598V346H203Z" />
<glyph unicode="I" horiz-adv-x="376" d="M343 708V688Q311 687 295 681T273 657T268 602V106Q268 70 273 52T295 28T343 20V0Q316 2 275 2T192 3Q143 3 102 3T34 0V20Q66 22 82 28T103 52T109 106V602Q109 639 104 656T82 680T34 688V708Q60 707 101 706T192
705Q234 705 275 706T343 708Z" />
<glyph unicode="J" horiz-adv-x="364" d="M-23 -188V-168Q17 -164 45 -145T88 -78T103 54V602Q103 639 98 656T76 680T28 688V708Q53 707 93 706T179 705Q224 705 266 706T337 708V688Q306 687 290 681T268 657T262 602V236Q262 195 262 148T259 55T245 -25Q225
-94 159 -141T-23 -188Z" />
<glyph unicode="K" horiz-adv-x="714" d="M689 708V689Q657 682 621 661T544 593L356 369L414 452L652 81Q666 58 682 44T724 20V0Q689 2 646 2T568 3Q547 3 517 3T441 0V20Q482 22 490 31T483 65L338 300Q324 323 313 334T291 350T262 356V377Q306 378 340 401T416
471L475 542Q513 587 519 619T507 670T447 689V708Q472 707 494 707T541 706T595 705Q624 705 647 706T689 708ZM343 708V688Q311 687 295 681T273 657T268 602V106Q268 70 273 52T295 28T343 20V0Q316 2 275 2T192 3Q144 3 102 3T34 0V20Q66 22 82 28T103 52T109
106V602Q109 639 104 656T82 680T34 688V708Q59 707 101 706T192 705Q234 705 275 706T343 708Z" />
<glyph unicode="L" horiz-adv-x="611" d="M349 708V688Q315 687 298 681T274 657T268 602V94Q268 63 272 48T290 28T331 23H380Q414 23 444 39T498 84T538 155T562 246H585Q582 212 582 158Q582 135 583 91T589 0Q538 2 474 2T360 3Q335 3 296 3T212 3T121 2T34
0V20Q66 22 82 28T103 52T109 106V602Q109 639 104 656T82 680T34 688V708Q59 707 101 706T192 705Q236 705 278 706T349 708Z" />
<glyph unicode="M" horiz-adv-x="927" d="M894 708V688Q862 687 846 681T825 657T819 602V106Q819 70 824 52T846 28T894 20V0Q866 2 824 2T737 3Q689 3 647 3T579 0V20Q613 22 630 28T654 52T660 106V647H667L419 -1H403L133 643V164Q133 109 139 80T165 38T230
20V0Q211 2 180 2T122 3Q99 3 75 3T35 0V20Q67 25 83 37T104 76T110 152V602Q110 639 105 656T83 680T35 688V708Q51 707 75 706T122 705Q165 705 206 706T280 708L490 201L465 178L666 705Q683 705 701 705T737 705Q781 705 823 706T894 708Z" />
<glyph unicode="N" horiz-adv-x="722" d="M693 708V688Q661 684 645 672T624 632T618 556V-2Q606 -1 594 -1T567 -2L133 548V164Q133 109 139 80T165 38T230 20V0Q211 2 180 2T122 3Q99 3 75 3T35 0V20Q67 25 83 37T104 76T110 152V602Q110 639 105 656T83 680T35
688V708Q51 707 75 706T122 705Q146 705 168 706T208 708L595 231V544Q595 599 589 628T563 671T498 688V708Q517 707 548 706T606 705Q630 705 653 706T693 708Z" />
<glyph unicode="O" horiz-adv-x="793" d="M397 722Q503 722 582 679T706 556T750 360Q750 248 705 164T580 33T396 -14Q290 -14 211 29T87 153T43 348Q43 460 88 544T213 675T397 722ZM393 704Q337 704 296 659T232 535T209 352Q209 246 234 168T303 47T400 4Q456
4 497 49T561 173T584 356Q584 463 559 541T490 661T393 704Z" />
<glyph unicode="P" horiz-adv-x="641" d="M34 708Q59 707 101 706T186 705Q234 705 279 706T343 707Q482 707 551 652T620 510Q620 474 606 435T559 362T467 307T321 286H219V306H311Q370 306 400 333T442 404T454 499Q454 594 426 641T330 688Q291 688 280 671T268
602V112Q268 73 276 54T307 29T375 22V0Q344 1 295 2T192 3Q149 3 108 2T34 0V20Q66 22 82 28T103 52T109 106V602Q109 639 104 656T82 680T34 688V708Z" />
<glyph unicode="Q" horiz-adv-x="793" d="M764 12L782 7Q774 -48 757 -87T713 -149Q692 -166 659 -177T584 -188Q529 -188 477 -171T370 -130T256 -82Q249 -80 243 -78T232 -75Q213 -84 191 -90T148 -96Q128 -96 115 -90T101 -70Q101 -43 156 -43Q191 -43 232
-57Q269 -47 295 -35T350 -11T420 3L421 -13Q389 -16 367 -24T321 -43T267 -62Q338 -67 399 -72T512 -79T606 -75Q668 -68 704 -48T764 12ZM397 722Q503 722 582 679T706 556T750 360Q750 248 705 164T580 33T396 -14Q290 -14 211 29T87 153T43 348Q43 460 88 544T213
675T397 722ZM393 704Q337 704 296 659T232 535T209 352Q209 246 234 168T303 47T400 4Q456 4 497 49T561 173T584 356Q584 463 559 541T490 661T393 704Z" />
<glyph unicode="R" horiz-adv-x="692" d="M34 708Q59 707 101 706T186 705Q234 705 279 706T343 707Q436 707 497 687T589 627T620 533Q620 499 606 465T559 401T467 354T321 336H225V356H311Q370 356 400 378T442 438T454 522Q454 601 426 644T330 688Q291 688
280 671T268 602V106Q268 70 273 52T295 28T343 20V0Q316 2 275 2T192 3Q144 3 102 3T34 0V20Q66 22 82 28T103 52T109 106V602Q109 639 104 656T82 680T34 688V708ZM223 353Q266 352 297 349T353 344T396 340Q487 332 530 301T587 208L610 105Q619 65 629 49T658
33Q671 34 679 39T698 56L712 44Q685 13 654 0T579 -14Q525 -14 490 9T444 94L426 194Q419 236 409 267T382 317T333 336H225L223 353Z" />
<glyph unicode="S" horiz-adv-x="584" d="M284 721Q343 721 375 709T430 682Q442 675 449 672T464 668Q474 668 478 679T486 712H509Q508 693 507 667T505 597T504 484H481Q477 536 457 585T401 665T311 697Q263 697 232 670T201 595Q201 555 221 527T279 471T373
406Q421 375 459 344T520 274T543 181Q543 115 509 72T418 8T295 -14Q233 -14 196 -2T134 23Q112 37 100 37Q90 37 86 26T78 -7H55Q57 17 57 49T58 132T59 263H82Q86 197 104 140T161 47T264 12Q299 12 326 24T371 62T388 124Q388 166 369 197T316 255T238 310Q191
341 150 372T85 443T60 538Q60 601 91 641T174 701T284 721Z" />
<glyph unicode="T" horiz-adv-x="668" d="M642 708Q638 657 637 610T635 538Q635 516 636 496T638 462H615Q599 546 575 595T516 664T436 685H413V114Q413 74 421 54T453 28T520 20V0Q489 1 438 2T330 3Q275 3 226 2T147 0V20Q192 21 215 27T246 54T254 114V685H232Q186
685 152 665T94 596T52 462H29Q31 476 31 496T32 538Q32 563 31 610T25 708Q71 707 125 706T235 705T334 705Q379 705 433 705T543 706T642 708Z" />
<glyph unicode="U" horiz-adv-x="689" d="M671 708V688Q639 684 623 672T601 632T596 556V291Q596 226 587 172T555 79Q529 36 479 11T352 -14Q306 -14 258 -4T172 36Q140 63 123 97T100 177T94 288V602Q94 639 89 656T67 680T19 688V708Q44 707 86 706T175 705Q221
705 263 706T334 708V688Q300 687 283 681T259 657T253 602V225Q253 175 259 137T281 73T324 34T391 21Q461 21 500 54T556 145T573 280V544Q573 599 566 628T539 671T476 688V708Q495 707 526 706T584 705Q608 705 631 706T671 708Z" />
<glyph unicode="V" horiz-adv-x="668" d="M678 708V688Q656 680 632 653T586 569L375 -2Q367 -1 358 -1T340 -1Q332 -1 323 -1T306 -2L51 624Q37 660 20 673T-12 688V708Q18 707 58 706T140 705Q186 705 226 706T292 708V688Q260 687 242 681T222 657T234 604L416
141L395 116L533 488Q560 563 561 606T540 668T477 688V708Q511 707 541 706T602 705Q624 705 643 706T678 708Z" />
<glyph unicode="W" horiz-adv-x="968" d="M974 708V688Q952 680 928 654T886 569L710 -2Q702 -1 693 -1T675 -1Q666 -1 657 -1T640 -2L430 634Q420 665 406 676T375 688V708Q403 707 441 706T518 705Q562 705 600 706T662 708V688Q632 687 615 681T595 658T604
604L746 170L723 129L836 488Q860 564 859 607T836 668T773 688V708Q807 707 837 706T897 705Q920 705 939 706T974 708ZM260 708V688Q240 685 232 674T225 644T234 604L387 160L360 124L488 498L502 471L345 -2Q337 -1 328 -1T310 -1Q301 -1 292 -1T275 -2L51
624Q38 661 21 674T-12 688V708Q18 707 59 706T137 705Q177 705 208 706T260 708Z" />
<glyph unicode="X" horiz-adv-x="691" d="M299 709V688Q254 688 242 680T243 650L639 71Q659 43 671 33T703 21V0Q683 1 645 2T566 4Q521 4 475 3T405 0V21Q451 21 464 27T464 55L67 638Q48 667 36 677T3 688V709Q24 708 64 707T146 705Q191 705 232 706T299 709ZM308
356Q308 356 310 350T314 337T316 330L216 193Q176 139 171 102T188 44T255 20V0Q241 1 220 1T175 2T131 3T97 3Q69 3 45 3T5 0V20Q40 32 76 62T150 142L308 356ZM658 708V688Q625 679 593 650T532 583L370 367Q370 367 367 380T363 393L466 532Q504 580 511 614T500
667T440 688V708Q459 707 482 707T527 706T566 705Q595 705 619 706T658 708Z" />
<glyph unicode="Y" horiz-adv-x="623" d="M617 709V689Q595 680 572 654T521 573L332 199H285L51 632Q33 666 19 677T-7 688V709Q20 706 48 705T111 704Q155 704 206 705T299 709V688Q274 688 254 684T226 670T230 636L388 332L357 292L460 499Q497 571 499 612T480
670T416 689V709Q450 708 480 707T541 706Q563 706 582 707T617 709ZM403 357V106Q403 70 408 52T430 28T478 20V0Q451 2 409 2T324 3Q277 3 235 3T169 0V20Q201 22 217 28T238 52T244 106V311L331 249L403 357Z" />
<glyph unicode="Z" horiz-adv-x="602" d="M557 708V688L215 23H319Q353 23 387 34T451 70T502 136T530 240H553Q550 206 550 152Q550 129 551 87T557 0Q520 2 476 2T389 3T308 3Q243 3 172 3T39 0V20L382 685H274Q236 685 204 675T144 642T99 579T74 480H51Q53
494 53 514T54 556Q54 579 53 621T47 708Q80 707 120 706T199 705T272 705Q339 705 415 705T557 708Z" />
<glyph unicode="[" horiz-adv-x="322" d="M285 772V753H228V-162H285V-181H84V772H285Z" />
<glyph unicode="\" horiz-adv-x="368" d="M31 722H64L336 -14H303L31 722Z" />
<glyph unicode="]" horiz-adv-x="322" d="M38 772H239V-181H38V-162H95V753H38V772Z" />
<glyph unicode="^" horiz-adv-x="529" d="M273 528Q303 470 356 415T472 324L464 310Q401 325 341 348T244 394Q215 371 166 348T64 310L56 324Q120 359 172 414T255 528H273Z" />
<glyph unicode="_" horiz-adv-x="591" d="M556 -84V-183H66V-84H556Z" />
<glyph unicode="`" horiz-adv-x="296" d="M69 817Q87 833 111 829T151 806Q168 787 178 761T202 699T246 608L235 599Q191 640 160 663T106 702T66 738Q50 758 51 780T69 817Z" />
<glyph unicode="a" horiz-adv-x="518" d="M162 -7Q117 -7 87 10T43 55T29 118Q29 161 48 188T99 232T164 260T230 281T281 306T301 344V422Q301 448 293 468T267 500T221 511Q201 511 181 506T148 487Q176 477 191 457T207 410Q207 376 184 356T128 336Q92 336
74 358T55 413Q55 442 69 461T110 497Q138 513 177 522T263 531Q309 531 346 522T408 487Q431 464 438 431T445 346V74Q445 49 450 40T467 30Q476 30 484 35T503 47L513 30Q492 12 465 3T403 -7Q366 -7 344 3T313 32T303 74Q279 36 245 15T162 -7ZM233 57Q253 57
269 66T301 98V303Q292 288 276 276T242 252T208 224T181 187T171 134Q171 95 188 76T233 57Z" />
<glyph unicode="b" horiz-adv-x="586" d="M367 531Q445 531 496 468T548 272Q548 168 517 105T433 14T319 -14Q278 -14 243 0T183 46L197 51Q215 29 239 18T288 7Q343 7 370 69T397 258Q397 344 387 394T356 466T308 488Q273 488 244 460T211 380L206 415Q224
472 267 501T367 531ZM214 782V20Q189 24 163 20T115 7T78 -16L63 -7Q67 7 68 21T70 49V662Q70 707 57 728T6 750V771Q38 768 68 768Q109 768 146 771T214 782Z" />
<glyph unicode="c" horiz-adv-x="496" d="M284 531Q323 531 355 523T409 501Q435 485 449 462T464 407Q464 372 442 350T385 327Q350 327 329 347T308 401Q308 433 328 454T374 483Q366 493 350 500T314 507Q283 507 260 489T220 439T196 364T187 270Q187 193
206 149T256 87T320 69Q339 69 361 75T407 99T451 150L468 144Q457 107 432 70T367 10T269 -14Q204 -14 152 14T68 102T36 256Q36 346 68 407T157 500T284 531Z" />
<glyph unicode="d" horiz-adv-x="598" d="M516 783V110Q516 65 530 44T580 22V1Q549 4 518 4Q476 4 440 1T372 -10V663Q372 708 359 729T308 751V772Q340 769 370 769Q411 769 448 772T516 783ZM261 531Q305 531 338 517T391 468L379 457Q366 481 345 491T299
502Q248 502 218 443T189 259Q189 174 200 124T233 51T283 29Q317 29 344 56T373 129L378 94Q363 41 330 14T242 -14Q183 -14 137 15T64 104T38 261Q38 352 67 411T146 501T261 531Z" />
<glyph unicode="e" horiz-adv-x="504" d="M282 531Q370 531 420 479T470 309H141L139 328H344Q345 377 338 418T316 485T276 510Q241 510 217 466T187 320L190 314Q189 302 189 289T188 262Q188 193 207 150T257 88T318 68Q339 68 361 74T407 98T450 148L468 142Q456
104 430 68T364 9T268 -14Q200 -14 148 15T67 103T37 253Q37 346 68 408T155 500T282 531Z" />
<glyph unicode="f" horiz-adv-x="352" d="M288 782Q323 782 349 773T395 749Q409 738 419 719T429 674Q429 647 410 626T358 605Q325 605 304 624T282 676Q282 702 297 722T341 750Q338 756 329 760T305 764Q285 764 272 757T251 738Q240 723 236 695T232 607V516H339V496H232V103Q232
54 257 38T326 21V0Q300 1 253 2T154 4Q116 4 80 3T24 0V21Q59 21 73 36T88 93V496H20V516H88Q88 575 94 614T114 682T151 732Q173 753 209 767T288 782Z" />
<glyph unicode="g" horiz-adv-x="553" d="M218 -188Q156 -188 108 -178T32 -146T4 -93Q4 -62 32 -38T115 1L124 -15Q105 -30 97 -47T88 -84Q88 -126 126 -148T231 -171Q276 -171 311 -159T367 -123T388 -64Q388 -34 366 -14T278 7H216Q175 7 145 16T97 44T80 94Q80
136 113 168T211 228L221 220Q202 208 186 195T169 160Q169 128 209 128H318Q373 128 416 115T485 73T511 -4Q511 -53 480 -95T383 -162T218 -188ZM228 213Q171 213 126 230T55 282T29 372Q29 427 55 462T126 514T228 531Q285 531 330 515T401 463T427 372Q427
317 401 282T330 230T228 213ZM228 231Q255 231 270 261T285 372Q285 452 270 482T228 513Q202 513 187 483T171 372Q171 292 186 262T228 231ZM384 445L364 452Q379 491 412 517T485 543Q517 543 533 526T550 480Q550 450 534 436T498 421Q481 421 467 433T450
469T467 533L474 527Q436 513 417 495T384 445Z" />
<glyph unicode="h" horiz-adv-x="608" d="M227 782V438Q252 490 294 510T390 531Q433 531 459 521T500 492Q517 473 524 443T532 362V93Q532 51 546 36T596 21V0Q577 1 539 2T464 4Q425 4 389 3T334 0V21Q364 21 376 36T388 93V404Q388 429 383 447T365 476T326
487Q299 487 277 473T241 432T227 372V93Q227 51 239 36T281 21V0Q263 1 228 2T157 4Q118 4 79 3T19 0V21Q54 21 68 36T83 93V662Q83 707 70 728T19 750V771Q51 768 81 768Q122 768 159 771T227 782Z" />
<glyph unicode="i" horiz-adv-x="315" d="M154 775Q196 775 220 755T245 698Q245 662 221 642T154 621Q112 621 88 641T63 698Q63 734 87 754T154 775ZM232 528V93Q232 51 246 36T296 21V0Q278 1 240 2T163 4Q124 4 84 3T24 0V21Q59 21 73 36T88 93V408Q88 453
75 474T24 496V517Q56 514 86 514Q128 514 164 517T232 528Z" />
<glyph unicode="j" horiz-adv-x="297" d="M-23 -188V-170Q26 -169 55 -132T84 -18V408Q84 453 70 474T20 496V517Q52 514 82 514Q123 514 160 517T228 528V94Q228 39 221 -3T198 -77T156 -134Q131 -158 88 -173T-23 -188ZM145 775Q187 775 211 755T236 698Q236
662 212 642T145 621Q103 621 79 641T54 698Q54 734 78 754T145 775Z" />
<glyph unicode="k" horiz-adv-x="585" d="M227 783V93Q227 51 240 36T287 21V0Q268 1 232 2T157 4Q118 4 79 3T19 0V21Q54 21 68 36T83 93V663Q83 708 70 729T19 751V772Q51 769 81 769Q122 769 159 772T227 783ZM553 517V497Q522 491 491 471T428 420L351 340L361
359L532 73Q543 55 555 41T584 21V0Q569 1 539 2T479 4Q442 4 405 3T350 0V21Q370 21 377 30T375 55L276 234Q264 253 253 258T222 265V284Q243 286 258 291T287 310L363 384Q397 416 397 441T376 481T319 497V517Q347 516 380 515T436 514Q456 514 478 514T521
515T553 517Z" />
<glyph unicode="l" horiz-adv-x="311" d="M228 783V93Q228 51 242 36T292 21V0Q273 1 235 2T158 4Q119 4 80 3T20 0V21Q55 21 69 36T84 93V663Q84 708 71 729T20 751V772Q52 769 82 769Q123 769 160 772T228 783Z" />
<glyph unicode="m" horiz-adv-x="905" d="M387 531Q429 531 455 521T497 492Q513 473 520 443T527 362V93Q527 51 540 36T585 21V0Q567 1 531 2T459 4Q423 4 388 3T335 0V21Q362 21 372 36T383 93V404Q383 429 379 447T364 476T329 487Q303 487 281 472T246 431T232
371V93Q232 51 243 36T280 21V0Q264 1 231 2T162 4Q124 4 84 3T24 0V21Q59 21 73 36T88 93V408Q88 453 75 474T24 496V517Q56 514 86 514Q128 514 164 517T232 528V438Q256 488 297 509T387 531ZM688 531Q730 531 756 521T798 492Q814 473 821 443T828 362V93Q828
51 842 36T892 21V0Q873 1 835 2T760 4Q724 4 689 3T636 0V21Q663 21 673 36T684 93V404Q684 429 680 447T663 476T624 487Q598 487 576 471T541 428T526 368L521 429Q548 489 592 510T688 531Z" />
<glyph unicode="n" horiz-adv-x="614" d="M396 531Q438 531 464 521T506 492Q522 473 529 443T537 362V93Q537 51 551 36T601 21V0Q582 1 544 2T469 4Q431 4 395 3T339 0V21Q369 21 381 36T393 93V404Q393 429 388 447T370 476T331 487Q304 487 282 472T246 431T232
371V93Q232 51 244 36T286 21V0Q268 1 234 2T162 4Q124 4 84 3T24 0V21Q59 21 73 36T88 93V408Q88 453 75 474T24 496V517Q56 514 86 514Q128 514 164 517T232 528V438Q257 489 300 510T396 531Z" />
<glyph unicode="o" horiz-adv-x="565" d="M282 531Q355 531 410 504T496 417T527 258Q527 159 496 100T410 13T282 -14Q211 -14 156 13T69 99T37 258Q37 357 68 417T155 504T282 531ZM282 511Q242 511 215 452T188 258Q188 124 215 65T282 6Q323 6 349 65T376
258Q376 392 350 451T282 511Z" />
<glyph unicode="p" horiz-adv-x="600" d="M228 528V-82Q228 -129 252 -144T318 -160V-181Q292 -180 247 -179T150 -177Q113 -177 78 -178T24 -181V-160Q57 -160 70 -146T84 -92V408Q84 453 70 474T20 496V517Q52 514 82 514Q123 514 160 517T228 528ZM383 531Q434
531 474 504T538 421T562 282Q562 209 546 154T499 62T426 5T330 -14Q291 -14 259 -1T210 38L220 51Q230 33 248 23T291 13Q336 13 362 43T399 129T411 262Q411 348 400 397T370 467T324 488Q288 488 259 460T225 380L220 415Q238 472 281 501T383 531Z" />
<glyph unicode="q" horiz-adv-x="585" d="M256 531Q303 531 337 519T396 472L381 467Q366 490 343 500T294 510Q242 510 215 448T188 259Q188 174 200 124T233 51T284 29Q317 29 344 58T374 137L379 102Q364 45 329 16T242 -14Q185 -14 139 15T65 104T37 261Q37
352 65 411T142 501T256 531ZM507 533L522 525Q518 512 517 498T515 468V-92Q515 -132 528 -146T575 -160V-181Q557 -180 522 -179T449 -177Q399 -177 353 -178T281 -181V-160Q324 -160 347 -145T371 -82V491Q397 489 423 494T471 509T507 533Z" />
<glyph unicode="r" horiz-adv-x="467" d="M368 531Q400 531 420 518T449 483T459 439Q459 402 438 379T381 355Q346 355 327 372T307 419Q307 447 319 465T351 497Q337 501 323 496Q304 493 287 481T258 450T239 410T232 368V103Q232 55 255 38T326 21V0Q303 1
259 2T167 4Q127 4 86 3T24 0V21Q59 21 73 36T88 93V408Q88 453 75 474T24 496V517Q56 514 86 514Q128 514 164 517T232 528V435Q244 462 264 484T310 518T368 531Z" />
<glyph unicode="s" horiz-adv-x="462" d="M222 531Q264 531 295 521T341 500Q375 477 383 530H404Q402 502 401 462T400 354H379Q374 391 360 427T320 486T251 509Q222 509 202 493T182 445Q182 415 200 393T246 350T306 306Q339 281 366 257T409 203T425 134Q425
89 399 56T331 4T236 -14Q206 -14 183 -8T142 7Q129 13 118 18T96 28Q86 31 79 21T67 -7H46Q48 25 49 71T50 193H71Q77 139 93 98T136 33T206 9Q223 9 239 16T265 39T276 80Q276 124 248 153T175 216Q143 242 115 267T68 323T50 393Q50 438 74 469T137 515T222
531Z" />
<glyph unicode="t" horiz-adv-x="352" d="M227 681V517H345V497H227V93Q227 63 238 51T271 38Q289 38 307 51T339 98L356 89Q340 44 308 15T219 -14Q186 -14 161 -6T119 20Q97 42 90 74T83 159V497H-1V517H83V649Q125 649 160 656T227 681Z" />
<glyph unicode="u" horiz-adv-x="606" d="M522 528V109Q522 64 536 43T586 21V0Q555 3 524 3Q482 3 446 0T378 -11V79Q354 29 312 8T217 -14Q175 -14 149 -3T108 25Q91 44 84 75T77 155V408Q77 453 64 474T13 496V517Q45 514 75 514Q117 514 153 517T221 528V114Q221
89 225 70T243 41T281 30Q308 30 329 45T364 86T378 146V408Q378 453 365 474T314 496V517Q346 514 376 514Q418 514 454 517T522 528Z" />
<glyph unicode="v" horiz-adv-x="508" d="M507 517V497Q488 492 471 474T438 411L292 -2Q276 -1 260 -1T227 -2L49 440Q33 479 18 487T-9 496V517Q23 515 57 514T133 512Q164 512 198 513T263 517V496Q242 496 226 494T203 481T205 442L322 132L312 118L391 337Q410
391 407 425T385 477T334 497V517Q349 516 366 516T400 515T430 514Q450 514 472 515T507 517Z" />
<glyph unicode="w" horiz-adv-x="787" d="M265 517V496Q243 496 227 494T205 479T208 440L303 143L290 129L407 518L427 509L274 -2Q258 -1 242 -1T209 -2L51 440Q37 480 21 488T-7 496V517Q25 514 59 513T135 511Q166 511 200 513T265 517ZM787 517V497Q768 492
751 474T719 411L586 -2Q570 -1 554 -1T521 -2L380 383L407 518Q425 517 443 517T480 518L617 114L606 125L673 337Q690 392 686 426T662 477T608 497V517Q624 516 642 516T679 515T711 514Q731 514 752 515T787 517Z" />
<glyph unicode="x" horiz-adv-x="536" d="M246 517V496Q226 496 217 487T217 462L480 71Q492 53 505 39T536 21V0Q521 1 491 2T429 4Q393 4 355 3T299 0V21Q319 21 328 30T328 55L65 446Q48 471 37 482T9 496V517Q26 516 60 515T128 513Q161 513 195 514T246 517ZM223
241Q223 241 224 235T227 223T229 217L189 166Q159 127 156 95T173 43T228 20V0Q209 1 182 1T128 2T84 3Q62 3 46 3T14 0V20Q37 29 58 46T105 97L223 241ZM507 517V497Q486 491 463 471T415 420L305 282Q305 282 304 287T301 299T299 305L349 372Q376 407 382 434T374
478T323 497V517Q352 516 382 515T436 514Q459 514 476 515T507 517Z" />
<glyph unicode="y" horiz-adv-x="519" d="M513 517V497Q494 492 477 474T444 411L303 15L266 -55L48 440Q31 479 15 487T-14 496V517Q19 514 54 513T123 511Q164 511 198 513T262 517V496Q242 496 225 494T201 480T206 440L332 136L323 130L397 337Q416 391 413
425T391 477T339 497V517Q355 516 372 516T406 515T436 514Q456 514 478 515T513 517ZM303 15L265 -92Q255 -117 245 -134T221 -163Q207 -175 185 -181T134 -188Q110 -188 85 -180T42 -154T25 -108Q25 -77 47 -59T105 -40Q138 -40 159 -56T180 -103Q180 -123 168
-141T130 -168Q135 -169 142 -169T153 -169Q183 -169 206 -150T244 -90L279 13L303 15Z" />
<glyph unicode="z" horiz-adv-x="474" d="M444 522L194 15H246Q285 15 319 31T377 87T406 194H427Q427 121 428 75T431 -4Q386 -2 337 -1T239 0Q188 0 134 -1T31 -5L281 502H225Q185 502 152 486T97 430T69 323H48Q48 397 47 443T44 521Q90 519 139 518T236 517Q288
517 341 518T444 522Z" />
<glyph unicode="{" horiz-adv-x="333" d="M316 782V763Q294 762 280 755T257 727T246 664T242 551Q242 484 226 439T183 366T120 323T45 299Q84 291 119 276T182 232T226 159T242 47Q242 -27 245 -70T257 -134T279 -162T316 -169V-188Q237 -188 189 -168T120 -96T98
47Q98 141 92 192T69 266T22 290H17V308H22Q53 310 69 331T91 405T98 551Q98 639 119 689T189 761T316 782Z" />
<glyph unicode="|" horiz-adv-x="253" d="M171 858V-195H83V858H171Z" />
<glyph unicode="}" horiz-adv-x="333" d="M17 782Q98 782 145 761T214 690T235 551Q235 457 241 405T264 332T311 308H316V290H311Q281 288 265 266T242 193T235 47Q235 -45 214 -96T146 -167T17 -188V-169Q39 -169 54 -163T77 -135T88 -70T91 47Q91 114 107 159T151
232T214 275T288 299Q250 307 214 322T151 366T108 439T91 551Q91 622 88 664T77 727T54 755T17 763V782Z" />
<glyph unicode="~" horiz-adv-x="668" d="M213 389Q254 389 288 376T354 345T420 314T491 300Q525 300 551 315T593 370L611 366Q606 319 585 284T530 230T457 211Q417 211 383 224T316 255T251 286T179 300Q146 300 120 285T77 230L60 234Q64 281 86 316T141
370T213 389Z" />
<glyph unicode="&#xa0;" horiz-adv-x="233" />
<glyph unicode="&#xa1;" horiz-adv-x="277" d="M147 318Q149 256 160 197T185 84T209 -15T220 -94Q220 -141 197 -164T138 -188Q103 -188 80 -164T56 -94Q56 -61 66 -16T90 83T115 196T129 318H147ZM139 531Q177 531 200 511T224 454Q224 418 201 398T139 377Q100
377 77 397T54 454Q54 490 77 510T139 531Z" />
<glyph unicode="&#xa2;" horiz-adv-x="499" d="M253 -181V44H275V-181H253ZM253 519V708H275V519H253ZM280 531Q319 531 351 523T405 501Q431 485 445 462T460 407Q460 372 438 350T381 327Q346 327 325 347T304 401Q304 433 323 454T370 483Q362 493 346 500T310
507Q278 507 255 489T216 439T192 364T183 270Q183 193 202 149T252 87T316 69Q335 69 357 75T403 99T446 150L464 144Q453 107 428 70T363 10T265 -14Q200 -14 148 14T64 102T32 256Q32 346 64 407T153 500T280 531Z" />
<glyph unicode="&#xa3;" horiz-adv-x="660" d="M387 736Q424 736 451 729T496 712Q519 699 532 680T546 635Q546 604 526 584T474 563Q443 563 423 581T402 629Q402 655 415 674T454 703Q447 710 431 714T395 719Q358 719 336 703T302 654T286 575T282 465V337Q282
295 272 262T245 198T205 138T157 74Q204 113 240 125T307 138Q347 138 377 130T436 114T503 105Q535 105 552 122T570 162Q570 193 550 211T497 236L501 252Q533 247 562 231T610 187T629 121Q629 82 613 51T563 3T478 -14Q434 -14 396 -1T323 28T252 54Q242 57
230 59T203 62Q175 62 148 52Q127 19 103 3T55 -14Q46 -14 40 -11T33 2Q33 13 43 24T73 47T120 64Q128 88 131 113T134 173T135 258V439Q135 501 147 554T188 649T265 713T387 736ZM403 317V297H58V317H403ZM403 417V397H58V417H403Z" />
<glyph unicode="&#xa4;" horiz-adv-x="615" d="M472 548L557 463L497 404Q511 381 518 355T525 300Q525 271 518 245T497 196L556 137L471 52L412 111Q388 98 362 91T308 83Q251 83 204 111L146 52L60 137L118 195Q105 218 98 244T90 300Q90 329 97 355T119 404L60
463L145 548L204 489Q226 503 252 510T308 518Q337 518 363 510T412 489L472 548ZM309 425Q277 425 251 408T209 363T193 300Q193 266 208 238T250 193T309 176Q341 176 367 192T408 237T424 300Q424 334 409 362T367 408T309 425Z" />
<glyph unicode="&#xa5;" horiz-adv-x="678" d="M559 303V283H150V303H559ZM559 203V183H150V203H559ZM649 709V689Q627 680 604 654T553 573L364 199H317L83 632Q65 666 51 677T25 688V709Q52 706 80 705T143 704Q187 704 237 705T331 709V688Q306 688 286 684T258
670T262 636L420 332L388 292L492 499Q528 571 530 612T511 670T448 689V709Q482 708 512 707T572 706Q595 706 614 707T649 709ZM434 357V106Q434 70 440 52T462 28T509 20V0Q483 2 441 2T355 3Q309 3 267 3T200 0V20Q233 22 249 28T270 52T275 106V311L362 249L434
357Z" />
<glyph unicode="&#xa6;" horiz-adv-x="256" d="M172 326V-195H84V326H172ZM172 858V384H84V858H172Z" />
<glyph unicode="&#xa7;" horiz-adv-x="581" d="M313 782Q356 782 385 775T431 760Q462 745 479 723T497 667Q497 639 478 618T423 597Q390 597 369 616T347 666Q347 690 360 711T398 740Q393 748 381 753T352 760T320 763Q282 763 259 750T226 716T216 672Q216
632 236 605T292 552T376 495Q430 458 468 428T527 364T547 287Q547 234 512 189T388 105L379 115Q409 136 424 159T439 215Q439 246 422 270T370 323T277 388Q214 429 172 463T108 534T86 615Q86 666 114 703T194 761T313 782ZM194 490L204 479Q173 459 159 436T144
379Q144 349 160 324T213 271T306 206Q368 165 410 131T475 60T497 -21Q497 -71 468 -109T388 -167T269 -188Q226 -188 197 -181T151 -166Q121 -151 103 -129T85 -73Q85 -45 105 -24T159 -3Q193 -3 214 -22T235 -72Q235 -96 222 -116T184 -146Q188 -153 201 -158T230
-166T262 -169Q301 -169 323 -156T356 -121T367 -78Q367 -38 347 -11T291 42T207 99Q152 136 114 166T56 230T36 307Q36 361 70 406T194 490Z" />
<glyph unicode="&#xa8;" horiz-adv-x="478" d="M353 760Q383 760 405 738T428 685Q428 654 406 632T353 610Q322 610 300 632T277 685Q277 715 299 737T353 760ZM125 760Q155 760 178 738T201 685Q201 654 178 632T125 610Q94 610 72 632T50 685Q50 715 72 737T125 760Z" />
<glyph unicode="&#xa9;" horiz-adv-x="881" d="M440 782Q523 782 595 751T721 666T807 539T838 384Q838 302 807 230T722 103T595 17T440 -14Q358 -14 286 17T159 102T73 229T42 384Q42 467 73 539T158 665T285 751T440 782ZM463 657Q503 657 536 648T590 625Q614
610 628 587T643 533Q643 498 621 476T564 453Q529 453 508 473T487 528Q487 559 506 580T553 609Q543 619 524 626T483 634Q469 634 456 630T430 616Q411 606 397 581T374 511T366 395Q366 311 385 263T435 196T498 176Q517 176 539 184T585 213T629 276L647 269Q636
233 611 196T546 136T448 112Q383 112 331 140T247 228T215 382Q215 472 247 533T335 626T463 657ZM440 750Q366 750 301 722T187 643T110 526T82 384Q82 308 110 242T187 126T301 47T440 18Q514 18 579 46T693 125T770 242T798 384Q798 460 770 526T693 642T579
721T440 750Z" />
<glyph unicode="&#xaa;" horiz-adv-x="482" d="M241 722Q321 722 357 692T393 595V427Q393 412 397 407T412 401Q429 401 441 412L452 397Q432 381 404 371T338 360Q297 360 282 372T265 407Q240 382 209 371T145 360Q104 360 75 379T46 439Q46 480 81 502T185
547Q213 556 239 570T265 603V621Q265 666 249 684T203 703Q190 703 176 700T148 688Q170 682 181 666T192 631Q192 603 172 588T125 573Q95 573 77 589T59 630Q59 654 74 671T113 699Q139 711 169 716T241 722ZM265 573Q261 565 252 557T224 534Q200 518 190 500T179
458Q179 435 190 421T217 407Q243 407 265 426V573Z" />
<glyph unicode="&#xab;" horiz-adv-x="569" d="M302 533L317 527Q305 489 290 451T255 377T216 311T175 260Q196 239 216 209T255 143T289 68T317 -10L302 -15Q243 65 177 132T26 252V265Q111 318 177 385T302 533ZM501 509L516 503Q503 456 483 410T440 325T393
260Q417 235 439 196T482 109T516 14L501 9Q448 82 388 143T250 252V265Q327 312 387 374T501 509Z" />
<glyph unicode="&#xac;" horiz-adv-x="642" d="M575 370V165H539V340H74V370H575Z" />
<glyph unicode="&#xad;" horiz-adv-x="481" />
<glyph unicode="&#xae;" horiz-adv-x="665" d="M332 782Q390 782 440 761T529 701T589 612T611 503Q611 445 590 395T530 306T441 246T332 224Q274 224 224 245T135 305T75 394T53 503Q53 561 74 611T134 700T223 760T332 782ZM266 523Q300 523 314 522T336 520T355
516Q408 512 427 498T452 457L467 392Q469 380 472 374T482 368Q489 368 493 374L501 364Q493 355 480 351T449 346Q417 346 401 357T380 389L365 462Q362 481 355 491T329 504T268 508L266 523ZM332 750Q266 750 213 717T127 627T95 503Q95 436 127 380T212 290T332
256Q398 256 452 289T537 379T569 503Q569 571 538 627T452 716T332 750ZM344 676Q409 676 437 656T466 597Q466 580 455 561T412 528T322 511L261 508Q261 508 261 516T261 524H314Q352 524 367 542T382 591Q382 626 370 643T328 661Q313 661 308 655T302 633V404Q302
381 306 375T325 367V352Q313 352 297 352T263 353Q243 353 225 353T196 352V367Q210 369 214 375T219 404V623Q219 647 215 653T196 661V676Q207 675 224 675T258 675Q286 675 310 675T344 676Z" />
<glyph unicode="&#xaf;" horiz-adv-x="436" d="M386 712V687H50V712H386Z" />
<glyph unicode="&#xb0;" horiz-adv-x="311" d="M155 820Q204 820 240 788T277 700Q277 644 241 612T155 579Q107 579 71 611T34 700Q34 756 70 788T155 820ZM155 803Q133 803 111 791T74 756T59 699Q59 664 73 641T110 607T155 596Q178 596 200 607T237 641T252
699Q252 733 237 756T200 791T155 803Z" />
<glyph unicode="&#xb1;" d="M541 30V0H40V30H541ZM306 606V370H538V340H306V105H270V340H37V370H270V606H306Z" />
<glyph unicode="&#xb2;" horiz-adv-x="351" d="M179 755Q227 755 258 737T290 681Q290 653 274 632T234 592T180 555T125 515H260Q284 515 292 523T307 549L324 546Q317 513 314 486T309 435Q300 437 291 437T271 438H27V458Q48 476 77 497T133 544T178 598T197
663Q197 689 182 702T136 715Q109 715 88 704T49 667L34 675Q52 706 86 730T179 755Z" />
<glyph unicode="&#xb3;" horiz-adv-x="330" d="M171 756Q220 756 252 738T285 684Q285 649 254 625T168 589Q205 591 235 580T283 548T302 498Q302 462 278 435T212 389T122 360T24 348V365Q78 371 120 389T186 436T211 503Q211 534 195 555T150 578Q139 573 131
569T114 564Q98 564 98 576Q98 587 111 589T142 590Q173 604 182 626T192 663Q192 688 176 703T129 718Q102 718 79 705T41 668L26 676Q43 708 77 732T171 756Z" />
<glyph unicode="&#xb4;" horiz-adv-x="296" d="M227 817Q244 804 245 781T230 738Q214 718 191 702T137 663T61 599L50 608Q80 662 94 698T118 761T145 806Q160 826 184 829T227 817Z" />
<glyph unicode="&#xb6;" horiz-adv-x="732" d="M421 709Q498 709 563 707T692 708V689Q646 687 634 671T621 621V-75Q621 -111 626 -129T648 -153T696 -161V-181Q665 -179 618 -179T521 -178Q472 -178 430 -178T361 -181V-161Q403 -159 425 -150T454 -121T462
-65V-13Q343 -13 261 15T129 93T56 212T33 360Q33 462 79 541T212 664T421 709ZM463 656Q458 656 449 617T430 514T419 372Q337 372 270 368T162 359T122 351Q122 348 162 343T269 335T419 331Q420 252 429 188T448 86T463 48Q463 48 463 80T463 167T463 285T463
415T463 534T463 621T463 656Z" />
<glyph unicode="&#xb7;" horiz-adv-x="278" d="M139 358Q178 358 201 338T224 281Q224 245 201 225T139 204Q100 204 77 224T54 281Q54 317 77 337T139 358Z" />
<glyph unicode="&#xb8;" horiz-adv-x="327" d="M158 2L137 -65Q153 -59 171 -56T208 -53Q242 -53 259 -67T277 -107Q277 -135 258 -153T206 -179T137 -188Q110 -188 88 -185T50 -176L55 -158Q61 -159 73 -160T99 -162Q116 -162 132 -158T160 -145T172 -121Q172
-95 139 -95Q131 -95 120 -96T99 -102L131 2H158Z" />
<glyph unicode="&#xb9;" horiz-adv-x="283" d="M203 753V507Q203 478 218 468T270 458V437Q253 438 221 438T155 439Q120 439 87 439T36 437V458Q71 458 90 468T110 507V636Q110 680 93 690T29 701V722Q91 723 130 730T203 753Z" />
<glyph unicode="&#xba;" horiz-adv-x="468" d="M234 722Q289 722 333 702T403 641T429 541Q429 482 403 442T333 381T234 360Q180 360 136 380T65 441T39 541Q39 601 65 641T135 701T234 722ZM234 704Q208 704 191 666T173 541Q173 454 190 416T234 378Q260 378
278 416T296 541Q296 628 278 666T234 704Z" />
<glyph unicode="&#xbb;" horiz-adv-x="569" d="M268 532Q326 452 392 385T543 264V252Q459 199 393 132T268 -16L252 -10Q264 28 280 66T314 140T353 206T394 257Q374 278 354 308T315 374T280 449T252 527L268 532ZM68 508Q121 435 181 374T320 264V252Q242 205
182 143T68 8L53 14Q67 62 87 108T130 192T176 257Q153 282 130 321T87 408T53 503L68 508Z" />
<glyph unicode="&#xbc;" horiz-adv-x="709" d="M663 824L682 811L97 -55L78 -42L663 824ZM218 753V507Q218 478 233 468T285 458V437Q268 438 236 438T170 439Q135 439 102 439T51 437V458Q86 458 105 468T125 507V636Q125 680 108 690T44 701V722Q106 723 145
730T218 753ZM540 312L548 297L322 47L339 76H574Q599 76 607 84T622 110L639 107Q635 93 632 75T628 41T625 15Q616 17 607 17T587 18H293V39L540 312ZM561 312V-99H488V243L540 312H561Z" />
<glyph unicode="&#xbd;" horiz-adv-x="720" d="M647 824L666 811L81 -55L62 -42L647 824ZM220 753V507Q220 478 235 468T287 458V437Q270 438 238 438T172 439Q137 439 104 439T53 437V458Q88 458 107 468T127 507V636Q127 680 110 690T46 701V722Q108 723 147
730T220 753ZM541 318Q589 318 620 300T652 244Q652 216 636 195T596 155T542 118T487 78H622Q646 78 654 86T669 112L686 109Q679 76 676 49T671 -2Q662 0 653 0T633 1H389V21Q410 39 439 60T495 107T540 161T559 226Q559 252 544 265T498 278Q471 278 450 267T411
230L396 238Q414 269 448 293T541 318Z" />
<glyph unicode="&#xbe;" horiz-adv-x="752" d="M705 824L724 811L139 -55L120 -42L705 824ZM192 756Q241 756 273 738T306 684Q306 649 275 625T189 589Q226 591 256 580T304 548T323 498Q323 462 299 435T233 389T143 360T45 348V365Q99 371 141 389T207 436T232
503Q232 534 216 555T171 578Q160 573 152 569T135 564Q119 564 119 576Q119 587 132 589T163 590Q194 604 203 626T213 663Q213 688 197 703T150 718Q123 718 100 705T62 668L47 676Q64 708 98 732T192 756ZM586 312L594 297L368 47L385 76H620Q645 76 653 84T668
110L685 107Q681 93 678 75T674 41T671 15Q662 17 653 17T633 18H339V39L586 312ZM607 312V-99H534V243L586 312H607Z" />
<glyph unicode="&#xbf;" horiz-adv-x="503" d="M304 323V185Q248 161 220 132T182 68T172 -5Q172 -91 206 -129T294 -168Q321 -168 345 -163T381 -146Q354 -137 340 -120T325 -73Q325 -42 347 -22T405 -1Q437 -1 456 -21T475 -70Q475 -101 459 -121T418 -155Q395
-169 358 -178T269 -188Q198 -188 144 -167T59 -107T29 -12Q29 40 61 81T150 150T284 194V323H304ZM293 532Q332 532 355 512T378 455Q378 419 355 399T293 378Q254 378 231 398T208 455Q208 491 231 511T293 532Z" />
<glyph unicode="&#xc0;" horiz-adv-x="667" d="M368 710L611 84Q625 48 642 35T674 20V0Q644 2 604 2T522 3Q476 3 435 3T370 0V20Q421 22 434 37T428 104L258 569L276 595L124 199Q102 144 98 109T102 55T133 29T185 20V0Q152 2 122 2T61 3Q39 3 20 3T-15 0V20Q6
24 28 47T71 125L299 710Q315 709 333 709T368 710ZM438 288V268H140L150 288H438ZM238 934Q261 922 280 902T326 852T400 784L393 772Q338 793 300 803T234 819T185 838Q162 851 155 872T157 912Q169 935 193 940T238 934Z" />
<glyph unicode="&#xc1;" horiz-adv-x="667" d="M368 710L611 84Q625 48 642 35T674 20V0Q644 2 604 2T522 3Q476 3 435 3T370 0V20Q421 22 434 37T428 104L258 569L276 595L124 199Q102 144 98 109T102 55T133 29T185 20V0Q152 2 122 2T61 3Q39 3 20 3T-15 0V20Q6
24 28 47T71 125L299 710Q315 709 333 709T368 710ZM438 288V268H140L150 288H438ZM422 934Q443 946 467 941T503 912Q513 893 506 872T475 838Q453 826 426 820T361 803T267 772L260 784Q308 823 334 852T380 901T422 934Z" />
<glyph unicode="&#xc2;" horiz-adv-x="667" d="M368 710L611 84Q625 48 642 35T674 20V0Q644 2 604 2T522 3Q476 3 435 3T370 0V20Q421 22 434 37T428 104L258 569L276 595L124 199Q102 144 98 109T102 55T133 29T185 20V0Q152 2 122 2T61 3Q39 3 20 3T-15 0V20Q6
24 28 47T71 125L299 710Q315 709 333 709T368 710ZM438 288V268H140L150 288H438ZM342 940Q372 897 426 855T547 784L542 769Q477 781 414 799T313 834Q282 817 230 799T124 769L119 784Q184 812 238 854T324 940H342Z" />
<glyph unicode="&#xc3;" horiz-adv-x="667" d="M368 710L611 84Q625 48 642 35T674 20V0Q644 2 604 2T522 3Q476 3 435 3T370 0V20Q421 22 434 37T428 104L258 569L276 595L124 199Q102 144 98 109T102 55T133 29T185 20V0Q152 2 122 2T61 3Q39 3 20 3T-15 0V20Q6
24 28 47T71 125L299 710Q315 709 333 709T368 710ZM438 288V268H140L150 288H438ZM245 924Q280 924 306 913T355 888T401 864T455 853Q479 853 500 865T538 907L552 902Q539 833 502 801T419 768Q384 768 358 778T308 803T262 828T208 839Q184 839 163 827T125
784L111 789Q125 859 162 891T245 924Z" />
<glyph unicode="&#xc4;" horiz-adv-x="667" d="M368 710L611 84Q625 48 642 35T674 20V0Q644 2 604 2T522 3Q476 3 435 3T370 0V20Q421 22 434 37T428 104L258 569L276 595L124 199Q102 144 98 109T102 55T133 29T185 20V0Q152 2 122 2T61 3Q39 3 20 3T-15 0V20Q6
24 28 47T71 125L299 710Q315 709 333 709T368 710ZM438 288V268H140L150 288H438ZM453 917Q483 917 505 894T528 841Q528 810 506 788T453 766Q422 766 400 788T377 842Q377 872 399 894T453 917ZM213 917Q243 917 266 894T289 841Q289 810 266 788T213 766Q182
766 160 788T138 842Q138 872 160 894T213 917Z" />
<glyph unicode="&#xc5;" horiz-adv-x="667" d="M368 710L611 84Q625 48 642 35T674 20V0Q644 2 604 2T522 3Q476 3 435 3T370 0V20Q421 22 434 37T428 104L258 569L276 595L124 199Q102 144 98 109T102 55T133 29T185 20V0Q152 2 122 2T61 3Q39 3 20 3T-15 0V20Q6
24 28 47T71 125L299 710Q315 709 333 709T368 710ZM438 288V268H140L150 288H438ZM333 937Q377 937 409 911T442 840Q442 795 410 769T333 742Q290 742 258 768T225 840Q225 885 257 911T333 937ZM333 916Q305 916 279 896T253 839Q253 801 279 782T333 763Q362
763 388 782T414 839Q414 876 388 896T333 916Z" />
<glyph unicode="&#xc6;" horiz-adv-x="889" d="M484 772L93 104Q65 57 79 40T144 20V0Q129 2 105 2T53 3Q35 3 17 3T-14 0V20Q2 21 18 34T55 84L460 772H484ZM824 708Q820 668 819 630T817 572Q817 552 818 534T820 504H797Q789 573 772 612T730 668T669 685H636Q605
685 589 680T567 657T561 602V106Q561 70 566 52T588 29T636 23H685Q719 23 746 42T791 104T817 224H840Q837 192 837 140Q837 119 838 81T844 0Q795 2 733 2T623 3Q593 3 544 3T440 3T335 0V20Q364 22 378 28T397 52T402 106V602Q402 639 397 656T375 680T327
688V708Q377 707 434 706T541 705T623 705Q667 705 723 705T824 708ZM435 366V346H223L233 366H435ZM695 366Q695 366 695 356T695 346H531Q531 346 531 356T531 366H695ZM724 484Q720 433 720 406T721 356Q721 333 722 307T727 228H704Q700 257 692 284T667 328T614
346V366Q640 366 656 378T680 409T693 448T701 484H724Z" />
<glyph unicode="&#xc7;" horiz-adv-x="705" d="M397 722Q463 722 505 703T581 657Q601 642 611 653T626 708H649Q647 669 646 614T645 466H622Q617 512 609 544T587 602T547 647Q522 672 489 684T420 696Q366 696 328 668T267 590T232 480T221 352Q221 285 232
224T268 114T332 38T424 10Q457 10 490 22T548 59Q587 89 601 133T622 252H645Q645 157 646 99T649 0H626Q622 43 613 54T581 51Q544 25 503 6T396 -14Q290 -14 211 29T87 153T43 348Q43 460 88 544T213 675T397 722ZM413 5L391 -65Q408 -59 427 -56T468 -53Q505
-53 524 -67T543 -107Q543 -135 521 -153T463 -179T385 -188Q356 -188 332 -185T292 -176L297 -158Q304 -159 317 -160T347 -162Q368 -162 389 -158T424 -145T438 -121Q438 -107 426 -101T392 -95Q384 -95 373 -96T353 -102L386 5H413Z" />
<glyph unicode="&#xc8;" horiz-adv-x="634" d="M569 708Q565 664 564 623T562 560Q562 540 563 522T565 492H542Q532 565 511 607T457 667T378 685H337Q308 685 293 680T273 660T268 614V94Q268 63 273 48T293 28T337 23H386Q431 23 465 42T524 109T562 236H585Q582
204 582 152Q582 129 583 87T589 0Q538 2 474 2T360 3Q335 3 296 3T212 3T121 2T34 0V20Q66 22 82 28T103 52T109 106V602Q109 639 104 656T82 680T34 688V708Q75 707 121 707T212 706T296 705T360 705Q406 705 464 705T569 708ZM413 366Q413 366 413 356T413 346H238Q238
346 238 356T238 366H413ZM442 498Q438 441 438 411T439 356Q439 331 440 301T445 214H422Q417 249 404 279T365 327T300 346V366Q330 366 351 378T385 411T407 455T419 498H442ZM219 934Q242 922 261 902T307 852T381 784L374 772Q319 793 281 803T215 819T166
838Q143 851 136 872T138 912Q150 935 174 940T219 934Z" />
<glyph unicode="&#xc9;" horiz-adv-x="634" d="M569 708Q565 664 564 623T562 560Q562 540 563 522T565 492H542Q532 565 511 607T457 667T378 685H337Q308 685 293 680T273 660T268 614V94Q268 63 273 48T293 28T337 23H386Q431 23 465 42T524 109T562 236H585Q582
204 582 152Q582 129 583 87T589 0Q538 2 474 2T360 3Q335 3 296 3T212 3T121 2T34 0V20Q66 22 82 28T103 52T109 106V602Q109 639 104 656T82 680T34 688V708Q75 707 121 707T212 706T296 705T360 705Q406 705 464 705T569 708ZM413 366Q413 366 413 356T413 346H238Q238
346 238 356T238 366H413ZM442 498Q438 441 438 411T439 356Q439 331 440 301T445 214H422Q417 249 404 279T365 327T300 346V366Q330 366 351 378T385 411T407 455T419 498H442ZM403 934Q424 946 448 941T484 912Q494 893 487 872T456 838Q434 826 407 820T342
803T248 772L241 784Q289 823 315 852T361 901T403 934Z" />
<glyph unicode="&#xca;" horiz-adv-x="634" d="M569 708Q565 664 564 623T562 560Q562 540 563 522T565 492H542Q532 565 511 607T457 667T378 685H337Q308 685 293 680T273 660T268 614V94Q268 63 273 48T293 28T337 23H386Q431 23 465 42T524 109T562 236H585Q582
204 582 152Q582 129 583 87T589 0Q538 2 474 2T360 3Q335 3 296 3T212 3T121 2T34 0V20Q66 22 82 28T103 52T109 106V602Q109 639 104 656T82 680T34 688V708Q75 707 121 707T212 706T296 705T360 705Q406 705 464 705T569 708ZM413 366Q413 366 413 356T413 346H238Q238
346 238 356T238 366H413ZM442 498Q438 441 438 411T439 356Q439 331 440 301T445 214H422Q417 249 404 279T365 327T300 346V366Q330 366 351 378T385 411T407 455T419 498H442ZM323 940Q353 897 407 855T528 784L523 769Q458 781 395 799T294 834Q263 817 211
799T105 769L100 784Q165 812 219 854T305 940H323Z" />
<glyph unicode="&#xcb;" horiz-adv-x="634" d="M569 708Q565 664 564 623T562 560Q562 540 563 522T565 492H542Q532 565 511 607T457 667T378 685H337Q308 685 293 680T273 660T268 614V94Q268 63 273 48T293 28T337 23H386Q431 23 465 42T524 109T562 236H585Q582
204 582 152Q582 129 583 87T589 0Q538 2 474 2T360 3Q335 3 296 3T212 3T121 2T34 0V20Q66 22 82 28T103 52T109 106V602Q109 639 104 656T82 680T34 688V708Q75 707 121 707T212 706T296 705T360 705Q406 705 464 705T569 708ZM413 366Q413 366 413 356T413 346H238Q238
346 238 356T238 366H413ZM442 498Q438 441 438 411T439 356Q439 331 440 301T445 214H422Q417 249 404 279T365 327T300 346V366Q330 366 351 378T385 411T407 455T419 498H442ZM434 917Q464 917 486 894T509 841Q509 810 487 788T434 766Q403 766 381 788T358
842Q358 872 380 894T434 917ZM194 917Q224 917 247 894T270 841Q270 810 247 788T194 766Q163 766 141 788T119 842Q119 872 141 894T194 917Z" />
<glyph unicode="&#xcc;" horiz-adv-x="376" d="M343 708V688Q311 687 295 681T273 657T268 602V106Q268 70 273 52T295 28T343 20V0Q316 2 275 2T192 3Q143 3 102 3T34 0V20Q66 22 82 28T103 52T109 106V602Q109 639 104 656T82 680T34 688V708Q60 707 101 706T192
705Q234 705 275 706T343 708ZM97 934Q120 922 139 902T185 852T259 784L252 772Q197 793 159 803T93 819T44 838Q21 851 14 872T16 912Q28 935 52 940T97 934Z" />
<glyph unicode="&#xcd;" horiz-adv-x="376" d="M343 708V688Q311 687 295 681T273 657T268 602V106Q268 70 273 52T295 28T343 20V0Q316 2 275 2T192 3Q143 3 102 3T34 0V20Q66 22 82 28T103 52T109 106V602Q109 639 104 656T82 680T34 688V708Q60 707 101 706T192
705Q234 705 275 706T343 708ZM281 934Q302 946 326 941T362 912Q372 893 365 872T334 838Q312 826 285 820T220 803T126 772L119 784Q167 823 193 852T239 901T281 934Z" />
<glyph unicode="&#xce;" horiz-adv-x="376" d="M343 708V688Q311 687 295 681T273 657T268 602V106Q268 70 273 52T295 28T343 20V0Q316 2 275 2T192 3Q143 3 102 3T34 0V20Q66 22 82 28T103 52T109 106V602Q109 639 104 656T82 680T34 688V708Q60 707 101 706T192
705Q234 705 275 706T343 708ZM457 940Q487 897 541 855T662 784L657 769Q592 781 529 799T428 834Q397 817 345 799T239 769L234 784Q299 812 353 854T439 940H457Z" />
<glyph unicode="&#xcf;" horiz-adv-x="376" d="M343 708V688Q311 687 295 681T273 657T268 602V106Q268 70 273 52T295 28T343 20V0Q316 2 275 2T192 3Q143 3 102 3T34 0V20Q66 22 82 28T103 52T109 106V602Q109 639 104 656T82 680T34 688V708Q60 707 101 706T192
705Q234 705 275 706T343 708ZM312 917Q342 917 364 894T387 841Q387 810 365 788T312 766Q281 766 259 788T236 842Q236 872 258 894T312 917ZM72 917Q102 917 125 894T148 841Q148 810 125 788T72 766Q41 766 19 788T-3 842Q-3 872 19 894T72 917Z" />
<glyph unicode="&#xd0;" horiz-adv-x="776" d="M343 708Q540 708 636 619T732 362Q732 253 685 172T549 45T334 0Q318 0 292 1T238 2T188 3Q144 3 102 3T34 0V20Q66 22 82 28T103 52T109 106V602Q109 639 104 656T82 680T34 688V708Q59 707 101 706T186 705Q222
706 267 707T343 708ZM342 690Q296 690 282 673T268 604V104Q268 52 282 35T343 18Q427 18 475 57T545 173T566 358Q566 470 544 543T472 653T342 690ZM392 366V346H8V366H392Z" />
<glyph unicode="&#xd1;" horiz-adv-x="722" d="M693 708V688Q661 684 645 672T624 632T618 556V-2Q606 -1 594 -1T567 -2L133 548V164Q133 109 139 80T165 38T230 20V0Q211 2 180 2T122 3Q99 3 75 3T35 0V20Q67 25 83 37T104 76T110 152V602Q110 639 105 656T83
680T35 688V708Q51 707 75 706T122 705Q146 705 168 706T208 708L595 231V544Q595 599 589 628T563 671T498 688V708Q517 707 548 706T606 705Q630 705 653 706T693 708ZM291 924Q326 924 352 913T401 888T447 864T501 853Q525 853 546 865T584 907L598 902Q585
833 548 801T465 768Q430 768 404 778T354 803T308 828T254 839Q230 839 209 827T171 784L157 789Q171 859 208 891T291 924Z" />
<glyph unicode="&#xd2;" horiz-adv-x="793" d="M397 722Q503 722 582 679T706 556T750 360Q750 248 705 164T580 33T396 -14Q290 -14 211 29T87 153T43 348Q43 460 88 544T213 675T397 722ZM393 704Q337 704 296 659T232 535T209 352Q209 246 234 168T303 47T400
4Q456 4 497 49T561 173T584 356Q584 463 559 541T490 661T393 704ZM300 934Q323 922 342 902T388 852T462 784L455 772Q400 793 362 803T296 819T247 838Q224 851 217 872T219 912Q231 935 255 940T300 934Z" />
<glyph unicode="&#xd3;" horiz-adv-x="793" d="M397 722Q503 722 582 679T706 556T750 360Q750 248 705 164T580 33T396 -14Q290 -14 211 29T87 153T43 348Q43 460 88 544T213 675T397 722ZM393 704Q337 704 296 659T232 535T209 352Q209 246 234 168T303 47T400
4Q456 4 497 49T561 173T584 356Q584 463 559 541T490 661T393 704ZM484 934Q505 946 529 941T565 912Q575 893 568 872T537 838Q515 826 488 820T423 803T329 772L322 784Q370 823 396 852T442 901T484 934Z" />
<glyph unicode="&#xd4;" horiz-adv-x="793" d="M397 722Q503 722 582 679T706 556T750 360Q750 248 705 164T580 33T396 -14Q290 -14 211 29T87 153T43 348Q43 460 88 544T213 675T397 722ZM393 704Q337 704 296 659T232 535T209 352Q209 246 234 168T303 47T400
4Q456 4 497 49T561 173T584 356Q584 463 559 541T490 661T393 704ZM404 940Q434 897 488 855T609 784L604 769Q539 781 476 799T375 834Q344 817 292 799T186 769L181 784Q246 812 300 854T386 940H404Z" />
<glyph unicode="&#xd5;" horiz-adv-x="793" d="M397 722Q503 722 582 679T706 556T750 360Q750 248 705 164T580 33T396 -14Q290 -14 211 29T87 153T43 348Q43 460 88 544T213 675T397 722ZM393 704Q337 704 296 659T232 535T209 352Q209 246 234 168T303 47T400
4Q456 4 497 49T561 173T584 356Q584 463 559 541T490 661T393 704ZM307 924Q342 924 368 913T417 888T463 864T517 853Q541 853 562 865T600 907L614 902Q601 833 564 801T481 768Q446 768 420 778T370 803T324 828T270 839Q246 839 225 827T187 784L173 789Q187
859 224 891T307 924Z" />
<glyph unicode="&#xd6;" horiz-adv-x="793" d="M397 722Q503 722 582 679T706 556T750 360Q750 248 705 164T580 33T396 -14Q290 -14 211 29T87 153T43 348Q43 460 88 544T213 675T397 722ZM393 704Q337 704 296 659T232 535T209 352Q209 246 234 168T303 47T400
4Q456 4 497 49T561 173T584 356Q584 463 559 541T490 661T393 704ZM515 917Q545 917 567 894T590 841Q590 810 568 788T515 766Q484 766 462 788T439 842Q439 872 461 894T515 917ZM275 917Q305 917 328 894T351 841Q351 810 328 788T275 766Q244 766 222 788T200
842Q200 872 222 894T275 917Z" />
<glyph unicode="&#xd7;" horiz-adv-x="493" d="M73 552L248 377L421 550L443 528L270 356L443 183L421 161L248 334L74 160L52 182L226 355L51 530L73 552Z" />
<glyph unicode="&#xd8;" horiz-adv-x="793" d="M397 722Q503 722 582 679T706 556T750 360Q750 248 705 164T580 33T396 -14Q290 -14 211 29T87 153T43 348Q43 460 88 544T213 675T397 722ZM393 704Q337 704 296 659T232 535T209 352Q209 246 234 168T303 47T400
4Q456 4 497 49T561 173T584 356Q584 463 559 541T490 661T393 704ZM559 637L574 617L231 76L213 94L559 637ZM201 94L219 76L110 -79L89 -65L201 94ZM663 779L682 766L581 617L566 637L663 779Z" />
<glyph unicode="&#xd9;" horiz-adv-x="689" d="M671 708V688Q639 684 623 672T601 632T596 556V291Q596 226 587 172T555 79Q529 36 479 11T352 -14Q306 -14 258 -4T172 36Q140 63 123 97T100 177T94 288V602Q94 639 89 656T67 680T19 688V708Q44 707 86 706T175
705Q221 705 263 706T334 708V688Q300 687 283 681T259 657T253 602V225Q253 175 259 137T281 73T324 34T391 21Q461 21 500 54T556 145T573 280V544Q573 599 566 628T539 671T476 688V708Q495 707 526 706T584 705Q608 705 631 706T671 708ZM262 934Q285 922 304
902T350 852T424 784L417 772Q362 793 324 803T258 819T209 838Q186 851 179 872T181 912Q193 935 217 940T262 934Z" />
<glyph unicode="&#xda;" horiz-adv-x="689" d="M671 708V688Q639 684 623 672T601 632T596 556V291Q596 226 587 172T555 79Q529 36 479 11T352 -14Q306 -14 258 -4T172 36Q140 63 123 97T100 177T94 288V602Q94 639 89 656T67 680T19 688V708Q44 707 86 706T175
705Q221 705 263 706T334 708V688Q300 687 283 681T259 657T253 602V225Q253 175 259 137T281 73T324 34T391 21Q461 21 500 54T556 145T573 280V544Q573 599 566 628T539 671T476 688V708Q495 707 526 706T584 705Q608 705 631 706T671 708ZM446 934Q467 946 491
941T527 912Q537 893 530 872T499 838Q477 826 450 820T385 803T291 772L284 784Q332 823 358 852T404 901T446 934Z" />
<glyph unicode="&#xdb;" horiz-adv-x="689" d="M671 708V688Q639 684 623 672T601 632T596 556V291Q596 226 587 172T555 79Q529 36 479 11T352 -14Q306 -14 258 -4T172 36Q140 63 123 97T100 177T94 288V602Q94 639 89 656T67 680T19 688V708Q44 707 86 706T175
705Q221 705 263 706T334 708V688Q300 687 283 681T259 657T253 602V225Q253 175 259 137T281 73T324 34T391 21Q461 21 500 54T556 145T573 280V544Q573 599 566 628T539 671T476 688V708Q495 707 526 706T584 705Q608 705 631 706T671 708ZM366 940Q396 897 450
855T571 784L566 769Q501 781 438 799T337 834Q306 817 254 799T148 769L143 784Q208 812 262 854T348 940H366Z" />
<glyph unicode="&#xdc;" horiz-adv-x="689" d="M671 708V688Q639 684 623 672T601 632T596 556V291Q596 226 587 172T555 79Q529 36 479 11T352 -14Q306 -14 258 -4T172 36Q140 63 123 97T100 177T94 288V602Q94 639 89 656T67 680T19 688V708Q44 707 86 706T175
705Q221 705 263 706T334 708V688Q300 687 283 681T259 657T253 602V225Q253 175 259 137T281 73T324 34T391 21Q461 21 500 54T556 145T573 280V544Q573 599 566 628T539 671T476 688V708Q495 707 526 706T584 705Q608 705 631 706T671 708ZM477 917Q507 917 529
894T552 841Q552 810 530 788T477 766Q446 766 424 788T401 842Q401 872 423 894T477 917ZM237 917Q267 917 290 894T313 841Q313 810 290 788T237 766Q206 766 184 788T162 842Q162 872 184 894T237 917Z" />
<glyph unicode="&#xdd;" horiz-adv-x="623" d="M617 709V689Q595 680 572 654T521 573L332 199H285L51 632Q33 666 19 677T-7 688V709Q20 706 48 705T111 704Q155 704 206 705T299 709V688Q274 688 254 684T226 670T230 636L388 332L357 292L460 499Q497 571 499
612T480 670T416 689V709Q450 708 480 707T541 706Q563 706 582 707T617 709ZM403 357V106Q403 70 408 52T430 28T478 20V0Q451 2 409 2T324 3Q277 3 235 3T169 0V20Q201 22 217 28T238 52T244 106V311L331 249L403 357ZM419 934Q440 946 464 941T500 912Q510 893
503 872T472 838Q450 826 423 820T358 803T264 772L257 784Q305 823 331 852T377 901T419 934Z" />
<glyph unicode="&#xde;" horiz-adv-x="621" d="M324 567Q417 567 478 545T570 479T601 375Q601 333 587 293T540 219T448 166T302 146H206Q206 146 206 156T206 166H292Q351 166 381 193T423 267T435 366Q435 455 405 501T299 548Q278 548 254 548T208 547T175
546L173 565Q220 565 263 566T324 567ZM343 708V688Q311 687 295 681T273 657T268 602V106Q268 70 273 52T295 28T343 20V0Q316 2 275 2T192 3Q143 3 102 3T34 0V20Q66 22 82 28T103 52T109 106V602Q109 639 104 656T82 680T34 688V708Q60 707 101 706T192 705Q234
705 275 706T343 708Z" />
<glyph unicode="&#xdf;" horiz-adv-x="657" d="M331 782Q433 782 487 740T541 634Q541 596 523 564T474 505T406 461T329 433Q424 420 491 384T594 296T630 180Q630 117 599 74T517 8T408 -14Q372 -14 340 -4T287 28T267 89Q267 124 285 146T338 169Q370 169 389
150T408 100Q408 69 389 48T345 16Q350 11 360 7T384 3Q414 3 435 22T469 78T481 165Q481 223 467 267T428 341T374 391T313 422Q305 417 296 413T278 409Q271 409 265 413T258 425Q258 444 281 444Q288 444 297 442T314 436Q365 472 384 516T403 624Q403 695 381
731T314 767Q284 767 265 749T236 688T227 569V-11Q200 -4 169 -1T102 3Q82 4 65 3T19 0V21Q55 21 69 38T83 99V522Q83 611 112 668T196 754T331 782Z" />
<glyph unicode="&#xe0;" horiz-adv-x="518" d="M162 -7Q117 -7 87 10T43 55T29 118Q29 161 48 188T99 232T164 260T230 281T281 306T301 344V422Q301 448 293 468T267 500T221 511Q201 511 181 506T148 487Q176 477 191 457T207 410Q207 376 184 356T128 336Q92
336 74 358T55 413Q55 442 69 461T110 497Q138 513 177 522T263 531Q309 531 346 522T408 487Q431 464 438 431T445 346V74Q445 49 450 40T467 30Q476 30 484 35T503 47L513 30Q492 12 465 3T403 -7Q366 -7 344 3T313 32T303 74Q279 36 245 15T162 -7ZM233 57Q253
57 269 66T301 98V303Q292 288 276 276T242 252T208 224T181 187T171 134Q171 95 188 76T233 57ZM135 817Q153 833 177 829T217 806Q234 787 244 761T268 699T312 608L301 599Q257 640 226 663T172 702T132 738Q116 758 117 780T135 817Z" />
<glyph unicode="&#xe1;" horiz-adv-x="518" d="M162 -7Q117 -7 87 10T43 55T29 118Q29 161 48 188T99 232T164 260T230 281T281 306T301 344V422Q301 448 293 468T267 500T221 511Q201 511 181 506T148 487Q176 477 191 457T207 410Q207 376 184 356T128 336Q92
336 74 358T55 413Q55 442 69 461T110 497Q138 513 177 522T263 531Q309 531 346 522T408 487Q431 464 438 431T445 346V74Q445 49 450 40T467 30Q476 30 484 35T503 47L513 30Q492 12 465 3T403 -7Q366 -7 344 3T313 32T303 74Q279 36 245 15T162 -7ZM233 57Q253
57 269 66T301 98V303Q292 288 276 276T242 252T208 224T181 187T171 134Q171 95 188 76T233 57ZM369 817Q386 804 387 781T372 738Q356 718 333 702T279 663T203 599L192 608Q222 662 236 698T260 761T287 806Q302 826 326 829T369 817Z" />
<glyph unicode="&#xe2;" horiz-adv-x="518" d="M162 -7Q117 -7 87 10T43 55T29 118Q29 161 48 188T99 232T164 260T230 281T281 306T301 344V422Q301 448 293 468T267 500T221 511Q201 511 181 506T148 487Q176 477 191 457T207 410Q207 376 184 356T128 336Q92
336 74 358T55 413Q55 442 69 461T110 497Q138 513 177 522T263 531Q309 531 346 522T408 487Q431 464 438 431T445 346V74Q445 49 450 40T467 30Q476 30 484 35T503 47L513 30Q492 12 465 3T403 -7Q366 -7 344 3T313 32T303 74Q279 36 245 15T162 -7ZM233 57Q253
57 269 66T301 98V303Q292 288 276 276T242 252T208 224T181 187T171 134Q171 95 188 76T233 57ZM269 820Q296 765 343 712T448 624L440 610Q382 624 328 645T240 686Q213 666 170 645T80 610L72 624Q129 658 176 711T251 820H269Z" />
<glyph unicode="&#xe3;" horiz-adv-x="518" d="M162 -7Q117 -7 87 10T43 55T29 118Q29 161 48 188T99 232T164 260T230 281T281 306T301 344V422Q301 448 293 468T267 500T221 511Q201 511 181 506T148 487Q176 477 191 457T207 410Q207 376 184 356T128 336Q92
336 74 358T55 413Q55 442 69 461T110 497Q138 513 177 522T263 531Q309 531 346 522T408 487Q431 464 438 431T445 346V74Q445 49 450 40T467 30Q476 30 484 35T503 47L513 30Q492 12 465 3T403 -7Q366 -7 344 3T313 32T303 74Q279 36 245 15T162 -7ZM233 57Q253
57 269 66T301 98V303Q292 288 276 276T242 252T208 224T181 187T171 134Q171 95 188 76T233 57ZM185 786Q216 786 237 776T275 753T311 730T354 720Q375 720 394 732T431 773L445 766Q428 692 395 660T321 627Q290 627 269 637T230 660T194 684T151 694Q130 694
111 682T74 640L60 647Q77 722 111 754T185 786Z" />
<glyph unicode="&#xe4;" horiz-adv-x="518" d="M162 -7Q117 -7 87 10T43 55T29 118Q29 161 48 188T99 232T164 260T230 281T281 306T301 344V422Q301 448 293 468T267 500T221 511Q201 511 181 506T148 487Q176 477 191 457T207 410Q207 376 184 356T128 336Q92
336 74 358T55 413Q55 442 69 461T110 497Q138 513 177 522T263 531Q309 531 346 522T408 487Q431 464 438 431T445 346V74Q445 49 450 40T467 30Q476 30 484 35T503 47L513 30Q492 12 465 3T403 -7Q366 -7 344 3T313 32T303 74Q279 36 245 15T162 -7ZM233 57Q253
57 269 66T301 98V303Q292 288 276 276T242 252T208 224T181 187T171 134Q171 95 188 76T233 57ZM375 760Q405 760 427 738T450 685Q450 654 428 632T375 610Q344 610 322 632T299 685Q299 715 321 737T375 760ZM147 760Q177 760 200 738T223 685Q223 654 200 632T147
610Q116 610 94 632T72 685Q72 715 94 737T147 760Z" />
<glyph unicode="&#xe5;" horiz-adv-x="518" d="M162 -7Q117 -7 87 10T43 55T29 118Q29 161 48 188T99 232T164 260T230 281T281 306T301 344V422Q301 448 293 468T267 500T221 511Q201 511 181 506T148 487Q176 477 191 457T207 410Q207 376 184 356T128 336Q92
336 74 358T55 413Q55 442 69 461T110 497Q138 513 177 522T263 531Q309 531 346 522T408 487Q431 464 438 431T445 346V74Q445 49 450 40T467 30Q476 30 484 35T503 47L513 30Q492 12 465 3T403 -7Q366 -7 344 3T313 32T303 74Q279 36 245 15T162 -7ZM233 57Q253
57 269 66T301 98V303Q292 288 276 276T242 252T208 224T181 187T171 134Q171 95 188 76T233 57ZM260 797Q304 797 336 771T369 700Q369 655 337 629T260 602Q217 602 185 628T152 700Q152 745 184 771T260 797ZM260 776Q232 776 206 756T180 699Q180 661 206 642T260
623Q289 623 315 642T341 699Q341 736 315 756T260 776Z" />
<glyph unicode="&#xe6;" horiz-adv-x="741" d="M156 -7Q89 -7 59 28T29 113Q29 156 48 183T99 227T164 256T230 279T281 306T301 344V422Q301 448 293 468T267 500T221 511Q201 511 181 506T148 487Q176 477 191 457T207 410Q207 376 184 356T128 336Q92 336 74
358T55 413Q55 442 69 461T110 497Q138 513 177 522T263 531Q309 531 346 522T408 487Q431 464 437 430T444 346L333 118Q307 68 279 41T219 4T156 -7ZM232 57Q256 57 277 72T318 126L305 307Q294 291 278 279T243 254T208 227T181 191T171 137Q171 94 189 76T232
57ZM516 -14Q453 -14 405 14T329 101T301 253Q301 337 327 399T405 496T530 531Q613 531 660 479T708 309H403L401 328H582Q583 377 577 418T558 485T524 510Q493 510 472 466T446 320L449 314Q448 302 448 289T447 262Q447 193 465 150T510 88T566 68Q585 68 605
74T645 98T684 148L702 142Q691 104 667 68T606 9T516 -14Z" />
<glyph unicode="&#xe7;" horiz-adv-x="496" d="M284 531Q323 531 355 523T409 501Q435 485 449 462T464 407Q464 372 442 350T385 327Q350 327 329 347T308 401Q308 433 328 454T374 483Q366 493 350 500T314 507Q283 507 260 489T220 439T196 364T187 270Q187
193 206 149T256 87T320 69Q339 69 361 75T407 99T451 150L468 144Q457 107 432 70T367 10T269 -14Q204 -14 152 14T68 102T36 256Q36 346 68 407T157 500T284 531ZM262 2L241 -65Q257 -59 275 -56T312 -53Q346 -53 363 -67T381 -107Q381 -135 362 -153T310 -179T241
-188Q214 -188 192 -185T154 -176L159 -158Q165 -159 177 -160T203 -162Q220 -162 236 -158T264 -145T276 -121Q276 -95 243 -95Q235 -95 224 -96T203 -102L235 2H262Z" />
<glyph unicode="&#xe8;" horiz-adv-x="504" d="M282 531Q370 531 420 479T470 309H141L139 328H344Q345 377 338 418T316 485T276 510Q241 510 217 466T187 320L190 314Q189 302 189 289T188 262Q188 193 207 150T257 88T318 68Q339 68 361 74T407 98T450 148L468
142Q456 104 430 68T364 9T268 -14Q200 -14 148 15T67 103T37 253Q37 346 68 408T155 500T282 531ZM151 817Q169 833 193 829T233 806Q250 787 260 761T284 699T328 608L317 599Q273 640 242 663T188 702T148 738Q132 758 133 780T151 817Z" />
<glyph unicode="&#xe9;" horiz-adv-x="504" d="M282 531Q370 531 420 479T470 309H141L139 328H344Q345 377 338 418T316 485T276 510Q241 510 217 466T187 320L190 314Q189 302 189 289T188 262Q188 193 207 150T257 88T318 68Q339 68 361 74T407 98T450 148L468
142Q456 104 430 68T364 9T268 -14Q200 -14 148 15T67 103T37 253Q37 346 68 408T155 500T282 531ZM385 817Q402 804 403 781T388 738Q372 718 349 702T295 663T219 599L208 608Q238 662 252 698T276 761T303 806Q318 826 342 829T385 817Z" />
<glyph unicode="&#xea;" horiz-adv-x="504" d="M282 531Q370 531 420 479T470 309H141L139 328H344Q345 377 338 418T316 485T276 510Q241 510 217 466T187 320L190 314Q189 302 189 289T188 262Q188 193 207 150T257 88T318 68Q339 68 361 74T407 98T450 148L468
142Q456 104 430 68T364 9T268 -14Q200 -14 148 15T67 103T37 253Q37 346 68 408T155 500T282 531ZM285 820Q312 765 359 712T464 624L456 610Q398 624 344 645T256 686Q229 666 186 645T96 610L88 624Q145 658 192 711T267 820H285Z" />
<glyph unicode="&#xeb;" horiz-adv-x="504" d="M282 531Q370 531 420 479T470 309H141L139 328H344Q345 377 338 418T316 485T276 510Q241 510 217 466T187 320L190 314Q189 302 189 289T188 262Q188 193 207 150T257 88T318 68Q339 68 361 74T407 98T450 148L468
142Q456 104 430 68T364 9T268 -14Q200 -14 148 15T67 103T37 253Q37 346 68 408T155 500T282 531ZM391 760Q421 760 443 738T466 685Q466 654 444 632T391 610Q360 610 338 632T315 685Q315 715 337 737T391 760ZM163 760Q193 760 216 738T239 685Q239 654 216
632T163 610Q132 610 110 632T88 685Q88 715 110 737T163 760Z" />
<glyph unicode="&#xec;" horiz-adv-x="315" d="M232 528V93Q232 51 246 36T296 21V0Q278 1 240 2T163 4Q124 4 84 3T24 0V21Q59 21 73 36T88 93V408Q88 453 75 474T24 496V517Q56 514 86 514Q128 514 164 517T232 528ZM32 817Q50 833 74 829T114 806Q131 787 141
761T165 699T209 608L198 599Q154 640 123 663T69 702T29 738Q13 758 14 780T32 817Z" />
<glyph unicode="&#xed;" horiz-adv-x="315" d="M232 528V93Q232 51 246 36T296 21V0Q278 1 240 2T163 4Q124 4 84 3T24 0V21Q59 21 73 36T88 93V408Q88 453 75 474T24 496V517Q56 514 86 514Q128 514 164 517T232 528ZM266 817Q283 804 284 781T269 738Q253 718
230 702T176 663T100 599L89 608Q119 662 133 698T157 761T184 806Q199 826 223 829T266 817Z" />
<glyph unicode="&#xee;" horiz-adv-x="315" d="M232 528V93Q232 51 246 36T296 21V0Q278 1 240 2T163 4Q124 4 84 3T24 0V21Q59 21 73 36T88 93V408Q88 453 75 474T24 496V517Q56 514 86 514Q128 514 164 517T232 528ZM422 820Q449 765 496 712T601 624L593 610Q535
624 481 645T393 686Q366 666 323 645T233 610L225 624Q282 658 329 711T404 820H422Z" />
<glyph unicode="&#xef;" horiz-adv-x="315" d="M232 528V93Q232 51 246 36T296 21V0Q278 1 240 2T163 4Q124 4 84 3T24 0V21Q59 21 73 36T88 93V408Q88 453 75 474T24 496V517Q56 514 86 514Q128 514 164 517T232 528ZM528 760Q558 760 580 738T603 685Q603 654
581 632T528 610Q497 610 475 632T452 685Q452 715 474 737T528 760ZM300 760Q330 760 353 738T376 685Q376 654 353 632T300 610Q269 610 247 632T225 685Q225 715 247 737T300 760Z" />
<glyph unicode="&#xf0;" horiz-adv-x="567" d="M137 782Q216 755 286 713T410 611T494 476T525 304Q525 195 494 124T407 19T281 -15Q210 -15 155 11T69 96T38 248Q38 318 54 370T101 459T173 513T265 531Q316 531 349 507T398 432L383 428Q377 462 362 479T330
502T295 508Q262 508 238 482T202 401T189 257Q189 168 201 112T234 31T279 5Q305 5 327 32T363 123T377 300Q377 392 363 464T318 593T241 691T129 765L137 782ZM293 694L310 680L111 583L102 601L293 694ZM449 770L458 752L310 680L293 694L449 770Z" />
<glyph unicode="&#xf1;" horiz-adv-x="614" d="M396 531Q438 531 464 521T506 492Q522 473 529 443T537 362V93Q537 51 551 36T601 21V0Q582 1 544 2T469 4Q431 4 395 3T339 0V21Q369 21 381 36T393 93V404Q393 429 388 447T370 476T331 487Q304 487 282 472T246
431T232 371V93Q232 51 244 36T286 21V0Q268 1 234 2T162 4Q124 4 84 3T24 0V21Q59 21 73 36T88 93V408Q88 453 75 474T24 496V517Q56 514 86 514Q128 514 164 517T232 528V438Q257 489 300 510T396 531ZM239 786Q270 786 291 776T329 753T365 730T408 720Q429
720 448 732T485 773L499 766Q482 692 449 660T375 627Q344 627 323 637T284 660T248 684T205 694Q184 694 165 682T128 640L114 647Q131 722 165 754T239 786Z" />
<glyph unicode="&#xf2;" horiz-adv-x="565" d="M282 531Q355 531 410 504T496 417T527 258Q527 159 496 100T410 13T282 -14Q211 -14 156 13T69 99T37 258Q37 357 68 417T155 504T282 531ZM282 511Q242 511 215 452T188 258Q188 124 215 65T282 6Q323 6 349 65T376
258Q376 392 350 451T282 511ZM159 817Q177 833 201 829T241 806Q258 787 268 761T292 699T336 608L325 599Q281 640 250 663T196 702T156 738Q140 758 141 780T159 817Z" />
<glyph unicode="&#xf3;" horiz-adv-x="565" d="M282 531Q355 531 410 504T496 417T527 258Q527 159 496 100T410 13T282 -14Q211 -14 156 13T69 99T37 258Q37 357 68 417T155 504T282 531ZM282 511Q242 511 215 452T188 258Q188 124 215 65T282 6Q323 6 349 65T376
258Q376 392 350 451T282 511ZM393 817Q410 804 411 781T396 738Q380 718 357 702T303 663T227 599L216 608Q246 662 260 698T284 761T311 806Q326 826 350 829T393 817Z" />
<glyph unicode="&#xf4;" horiz-adv-x="565" d="M282 531Q355 531 410 504T496 417T527 258Q527 159 496 100T410 13T282 -14Q211 -14 156 13T69 99T37 258Q37 357 68 417T155 504T282 531ZM282 511Q242 511 215 452T188 258Q188 124 215 65T282 6Q323 6 349 65T376
258Q376 392 350 451T282 511ZM293 820Q320 765 367 712T472 624L464 610Q406 624 352 645T264 686Q237 666 194 645T104 610L96 624Q153 658 200 711T275 820H293Z" />
<glyph unicode="&#xf5;" horiz-adv-x="565" d="M282 531Q355 531 410 504T496 417T527 258Q527 159 496 100T410 13T282 -14Q211 -14 156 13T69 99T37 258Q37 357 68 417T155 504T282 531ZM282 511Q242 511 215 452T188 258Q188 124 215 65T282 6Q323 6 349 65T376
258Q376 392 350 451T282 511ZM209 786Q240 786 261 776T299 753T335 730T378 720Q399 720 418 732T455 773L469 766Q452 692 419 660T345 627Q314 627 293 637T254 660T218 684T175 694Q154 694 135 682T98 640L84 647Q101 722 135 754T209 786Z" />
<glyph unicode="&#xf6;" horiz-adv-x="565" d="M282 531Q355 531 410 504T496 417T527 258Q527 159 496 100T410 13T282 -14Q211 -14 156 13T69 99T37 258Q37 357 68 417T155 504T282 531ZM282 511Q242 511 215 452T188 258Q188 124 215 65T282 6Q323 6 349 65T376
258Q376 392 350 451T282 511ZM399 760Q429 760 451 738T474 685Q474 654 452 632T399 610Q368 610 346 632T323 685Q323 715 345 737T399 760ZM171 760Q201 760 224 738T247 685Q247 654 224 632T171 610Q140 610 118 632T96 685Q96 715 118 737T171 760Z" />
<glyph unicode="&#xf7;" horiz-adv-x="633" d="M317 266Q340 266 356 250T373 211Q373 188 357 172T317 155Q295 155 279 171T262 211Q262 234 278 250T317 266ZM317 554Q340 554 356 538T373 499Q373 476 357 460T317 444Q295 444 279 460T262 499Q262 522 278
538T317 554ZM569 370V340H68V370H569Z" />
<glyph unicode="&#xf8;" horiz-adv-x="565" d="M282 531Q355 531 410 504T496 417T527 258Q527 159 496 100T410 13T282 -14Q211 -14 156 13T69 99T37 258Q37 357 68 417T155 504T282 531ZM282 511Q242 511 215 452T188 258Q188 124 215 65T282 6Q323 6 349 65T376
258Q376 392 350 451T282 511ZM646 466L661 446L438 63L422 84L646 466ZM401 77L417 57L327 -73L307 -60L401 77ZM750 590L769 577L679 446L664 466L750 590Z" />
<glyph unicode="&#xf9;" horiz-adv-x="606" d="M522 528V109Q522 64 536 43T586 21V0Q555 3 524 3Q482 3 446 0T378 -11V79Q354 29 312 8T217 -14Q175 -14 149 -3T108 25Q91 44 84 75T77 155V408Q77 453 64 474T13 496V517Q45 514 75 514Q117 514 153 517T221
528V114Q221 89 225 70T243 41T281 30Q308 30 329 45T364 86T378 146V408Q378 453 365 474T314 496V517Q346 514 376 514Q418 514 454 517T522 528ZM164 817Q182 833 206 829T246 806Q263 787 273 761T297 699T341 608L330 599Q286 640 255 663T201 702T161 738Q145
758 146 780T164 817Z" />
<glyph unicode="&#xfa;" horiz-adv-x="606" d="M522 528V109Q522 64 536 43T586 21V0Q555 3 524 3Q482 3 446 0T378 -11V79Q354 29 312 8T217 -14Q175 -14 149 -3T108 25Q91 44 84 75T77 155V408Q77 453 64 474T13 496V517Q45 514 75 514Q117 514 153 517T221
528V114Q221 89 225 70T243 41T281 30Q308 30 329 45T364 86T378 146V408Q378 453 365 474T314 496V517Q346 514 376 514Q418 514 454 517T522 528ZM398 817Q415 804 416 781T401 738Q385 718 362 702T308 663T232 599L221 608Q251 662 265 698T289 761T316 806Q331
826 355 829T398 817Z" />
<glyph unicode="&#xfb;" horiz-adv-x="606" d="M522 528V109Q522 64 536 43T586 21V0Q555 3 524 3Q482 3 446 0T378 -11V79Q354 29 312 8T217 -14Q175 -14 149 -3T108 25Q91 44 84 75T77 155V408Q77 453 64 474T13 496V517Q45 514 75 514Q117 514 153 517T221
528V114Q221 89 225 70T243 41T281 30Q308 30 329 45T364 86T378 146V408Q378 453 365 474T314 496V517Q346 514 376 514Q418 514 454 517T522 528ZM298 820Q325 765 372 712T477 624L469 610Q411 624 357 645T269 686Q242 666 199 645T109 610L101 624Q158 658
205 711T280 820H298Z" />
<glyph unicode="&#xfc;" horiz-adv-x="606" d="M522 528V109Q522 64 536 43T586 21V0Q555 3 524 3Q482 3 446 0T378 -11V79Q354 29 312 8T217 -14Q175 -14 149 -3T108 25Q91 44 84 75T77 155V408Q77 453 64 474T13 496V517Q45 514 75 514Q117 514 153 517T221
528V114Q221 89 225 70T243 41T281 30Q308 30 329 45T364 86T378 146V408Q378 453 365 474T314 496V517Q346 514 376 514Q418 514 454 517T522 528ZM404 760Q434 760 456 738T479 685Q479 654 457 632T404 610Q373 610 351 632T328 685Q328 715 350 737T404 760ZM176
760Q206 760 229 738T252 685Q252 654 229 632T176 610Q145 610 123 632T101 685Q101 715 123 737T176 760Z" />
<glyph unicode="&#xfd;" horiz-adv-x="519" d="M513 517V497Q494 492 477 474T444 411L303 15L266 -55L48 440Q31 479 15 487T-14 496V517Q19 514 54 513T123 511Q164 511 198 513T262 517V496Q242 496 225 494T201 480T206 440L332 136L323 130L397 337Q416 391
413 425T391 477T339 497V517Q355 516 372 516T406 515T436 514Q456 514 478 515T513 517ZM303 15L265 -92Q255 -117 245 -134T221 -163Q207 -175 185 -181T134 -188Q110 -188 85 -180T42 -154T25 -108Q25 -77 47 -59T105 -40Q138 -40 159 -56T180 -103Q180 -123
168 -141T130 -168Q135 -169 142 -169T153 -169Q183 -169 206 -150T244 -90L279 13L303 15ZM367 817Q384 804 385 781T370 738Q354 718 331 702T277 663T201 599L190 608Q220 662 234 698T258 761T285 806Q300 826 324 829T367 817Z" />
<glyph unicode="&#xfe;" horiz-adv-x="584" d="M212 782V-82Q212 -129 236 -144T302 -160V-181Q277 -180 231 -179T134 -177Q98 -177 63 -178T8 -181V-160Q41 -160 54 -146T68 -92V662Q68 707 55 728T4 750V771Q36 768 66 768Q108 768 144 771T212 782ZM367 531Q419
531 459 504T522 421T546 282Q546 209 530 154T484 62T410 5T315 -14Q276 -14 244 -1T195 38L205 51Q215 33 233 23T276 13Q320 13 346 43T384 129T395 262Q395 348 385 397T355 467T309 488Q272 488 243 460T209 380L205 415Q223 472 266 501T367 531Z" />
<glyph unicode="&#xff;" horiz-adv-x="519" d="M513 517V497Q494 492 477 474T444 411L303 15L266 -55L48 440Q31 479 15 487T-14 496V517Q19 514 54 513T123 511Q164 511 198 513T262 517V496Q242 496 225 494T201 480T206 440L332 136L323 130L397 337Q416 391
413 425T391 477T339 497V517Q355 516 372 516T406 515T436 514Q456 514 478 515T513 517ZM303 15L265 -92Q255 -117 245 -134T221 -163Q207 -175 185 -181T134 -188Q110 -188 85 -180T42 -154T25 -108Q25 -77 47 -59T105 -40Q138 -40 159 -56T180 -103Q180 -123
168 -141T130 -168Q135 -169 142 -169T153 -169Q183 -169 206 -150T244 -90L279 13L303 15ZM373 760Q403 760 425 738T448 685Q448 654 426 632T373 610Q342 610 320 632T297 685Q297 715 319 737T373 760ZM145 760Q175 760 198 738T221 685Q221 654 198 632T145
610Q114 610 92 632T70 685Q70 715 92 737T145 760Z" />
<glyph unicode="&#x2013;" horiz-adv-x="602" d="M546 320V221H56V320H546Z" />
<glyph unicode="&#x2014;" horiz-adv-x="895" d="M839 320V221H56V320H839Z" />
<glyph unicode="&#x2018;" horiz-adv-x="258" d="M137 449Q113 449 95 458T66 484Q56 499 50 521T44 567Q44 617 69 659T149 727L158 709Q130 697 109 673T83 621Q77 599 82 580Q104 603 141 603Q175 603 197 583T219 526Q219 492 196 471T137 449Z" />
<glyph unicode="&#x2019;" horiz-adv-x="253" d="M119 722Q144 722 162 713T190 687Q201 673 206 650T212 604Q212 554 187 512T107 444L98 462Q126 474 148 499T174 550Q179 572 174 592Q152 568 116 568Q81 568 59 588T37 645Q37 680 60 701T119 722Z" />
<glyph unicode="&#x201a;" horiz-adv-x="271" d="M131 140Q156 140 174 131T202 105Q213 91 218 68T224 22Q224 -28 199 -70T119 -138L110 -120Q138 -108 160 -83T186 -32Q191 -10 186 10Q164 -14 128 -14Q93 -14 71 6T49 63Q49 98 72 119T131 140Z" />
<glyph unicode="&#x201c;" horiz-adv-x="464" d="M137 448Q113 448 95 457T66 483Q56 499 50 521T44 567Q44 616 69 659T149 727L158 709Q130 696 109 672T83 620Q77 599 82 579Q104 603 141 603Q175 603 197 583T219 526Q219 491 196 470T137 448ZM343 448Q319
448 301 457T272 483Q262 499 256 521T250 567Q250 616 275 659T355 727L364 709Q336 696 315 672T289 620Q283 599 288 579Q310 603 347 603Q381 603 403 583T425 526Q425 491 402 470T343 448Z" />
<glyph unicode="&#x201d;" horiz-adv-x="459" d="M325 722Q350 722 368 713T396 687Q407 673 412 650T418 604Q418 554 393 512T313 444L304 462Q332 474 354 499T380 550Q385 572 380 592Q358 568 322 568Q287 568 265 588T243 645Q243 680 266 701T325 722ZM119
722Q144 722 162 713T190 687Q201 673 206 650T212 604Q212 554 187 512T107 444L98 462Q126 474 148 499T174 550Q179 572 174 592Q152 568 116 568Q81 568 59 588T37 645Q37 680 60 701T119 722Z" />
<glyph unicode="&#x201e;" horiz-adv-x="477" d="M337 140Q362 140 380 131T408 105Q419 91 424 68T430 22Q430 -28 405 -70T325 -138L316 -120Q344 -108 366 -83T392 -32Q397 -10 392 10Q370 -14 334 -14Q299 -14 277 6T255 63Q255 98 278 119T337 140ZM131 140Q156
140 174 131T202 105Q213 91 218 68T224 22Q224 -28 199 -70T119 -138L110 -120Q138 -108 160 -83T186 -32Q191 -10 186 10Q164 -14 128 -14Q93 -14 71 6T49 63Q49 98 72 119T131 140Z" />
<glyph unicode="&#x2022;" horiz-adv-x="485" d="M242 438Q289 438 327 415T388 354T411 269Q411 223 388 185T328 124T242 101Q196 101 158 123T97 184T74 269Q74 316 97 354T158 415T242 438Z" />
<glyph unicode="&#x2039;" horiz-adv-x="362" d="M302 533L317 527Q305 489 290 451T255 377T216 311T175 260Q196 239 216 209T255 143T289 68T317 -10L302 -15Q243 65 177 132T26 252V265Q111 318 177 385T302 533Z" />
<glyph unicode="&#x203a;" horiz-adv-x="362" d="M61 533Q119 453 185 386T336 265V252Q252 200 186 133T61 -15L46 -10Q57 29 73 67T107 141T146 206T187 257Q167 278 147 308T108 375T73 450T46 527L61 533Z" />
</font>
</defs>
</svg>
